<svg xmlns="http://www.w3.org/2000/svg" xmlns:svg="http://www.w3.org/2000/svg" xmlns:xlink="http://www.w3.org/1999/xlink" id="svg2" width="30" height="32" version="1.1" style="display:inline"><defs id="defs4"><linearGradient id="linearGradient3638"><stop id="stop3640" offset="0" style="stop-color:#80a4c4;stop-opacity:1"/><stop style="stop-color:#fff;stop-opacity:1" id="stop3642" offset=".18"/><stop id="stop3646" offset=".499" style="stop-color:#fff;stop-opacity:1"/><stop id="stop3644" offset="1" style="stop-color:#80a4c4;stop-opacity:1"/></linearGradient><linearGradient id="linearGradient3606"><stop style="stop-color:#80a4c4;stop-opacity:1" id="stop3608" offset="0"/><stop id="stop3614" offset=".317" style="stop-color:#fff;stop-opacity:1"/><stop style="stop-color:#80a4c4;stop-opacity:1" id="stop3610" offset="1"/></linearGradient><linearGradient id="linearGradient3612" x1="50.003" x2="50.003" y1="1012.422" y2="1052.36" gradientTransform="matrix(0.29168745,0,0,0.78658387,0.41488489,224.30043)" gradientUnits="userSpaceOnUse" xlink:href="#linearGradient3606"/><linearGradient id="linearGradient3636" x1="50.003" x2="50.003" y1="1012.422" y2="1052.36" gradientUnits="userSpaceOnUse" xlink:href="#linearGradient3638"/></defs><metadata id="metadata7"/><g id="layer1" transform="translate(0,-1020.3622)" style="display:inline"><rect id="rect3618" width="29.024" height="31.024" x=".488" y="1020.85" rx="4.877" ry="4.885" style="fill:url(#linearGradient3612);fill-opacity:1;stroke:#000;stroke-width:.9761619;stroke-linejoin:round;stroke-miterlimit:4;stroke-opacity:1;stroke-dasharray:none;display:inline"/><g style="display:inline" id="layer1-6" transform="matrix(0.2,0,0,0.2,-14.950987,1018.4848)"><path id="path2520" d="m 141.35378,46.286264 0,64.750006 c -1.70454,1.6489 -2.94669,3.77114 -3.5,6.15625 l -8.4375,0 -0.125,5.65625 8.5625,0 c 1.28732,5.53295 6.23327,9.65624 12.15625,9.65625 5.92495,0 10.87095,-4.12052 12.15625,-9.65625 l 8.3125,-0.0312 0,-5.65625 -8.3125,0.0312 c -0.58668,-2.52896 -1.94655,-4.75116 -3.8125,-6.4375 l 0,-64.468756 -6.375,0 -4.25,0 -6.375,0 z m 4.0625,4.03125 8.96875,0 0,57.687506 -8.96875,0 0,-57.687506 z m 4.59375,62.187506 c 4.14,0 7.5,3.36 7.5,7.5 0,4.14 -3.36,7.5 -7.5,7.5 -4.14,0 -7.5,-3.36 -7.5,-7.5 0,-4.14 3.36,-7.5 7.5,-7.5 z" style="fill:#000407;fill-opacity:1;fill-rule:evenodd;stroke:none;display:inline"/></g></g></svg>