<svg xmlns="http://www.w3.org/2000/svg" xmlns:svg="http://www.w3.org/2000/svg" xmlns:xlink="http://www.w3.org/1999/xlink" id="svg2" width="30" height="32" version="1.1" style="display:inline"><defs id="defs4"><linearGradient id="linearGradient3638"><stop id="stop3640" offset="0" style="stop-color:#80a4c4;stop-opacity:1"/><stop style="stop-color:#fff;stop-opacity:1" id="stop3642" offset=".18"/><stop id="stop3646" offset=".499" style="stop-color:#fff;stop-opacity:1"/><stop id="stop3644" offset="1" style="stop-color:#80a4c4;stop-opacity:1"/></linearGradient><linearGradient id="linearGradient3606"><stop style="stop-color:#80a4c4;stop-opacity:1" id="stop3608" offset="0"/><stop id="stop3614" offset=".317" style="stop-color:#fff;stop-opacity:1"/><stop style="stop-color:#80a4c4;stop-opacity:1" id="stop3610" offset="1"/></linearGradient><linearGradient id="linearGradient3612" x1="50.003" x2="50.003" y1="1012.422" y2="1052.36" gradientTransform="matrix(0.29168745,0,0,0.78658387,0.41488489,224.30043)" gradientUnits="userSpaceOnUse" xlink:href="#linearGradient3606"/><linearGradient id="linearGradient3636" x1="50.003" x2="50.003" y1="1012.422" y2="1052.36" gradientUnits="userSpaceOnUse" xlink:href="#linearGradient3638"/></defs><metadata id="metadata7"/><g id="layer1" transform="translate(0,-1020.3622)" style="display:inline"><rect id="rect3618" width="29.024" height="31.024" x=".488" y="1020.85" rx="4.877" ry="4.885" style="fill:url(#linearGradient3612);fill-opacity:1;stroke:#000;stroke-width:.9761619;stroke-linejoin:round;stroke-miterlimit:4;stroke-opacity:1;stroke-dasharray:none;display:inline"/><g id="g3249" transform="matrix(0.2,0,0,0.2,-14.97622,1018.3533)" style="display:inline"><path id="path3251" d="m 148.90625,126.3125 c -11.35118,0.57539 -20.40625,10.01945 -20.40625,21.5 0,3.87583 1.03993,7.51187 2.84375,10.65625 -1.25018,-0.22909 -2.53213,-0.3125 -3.84375,-0.3125 -11.74587,0 -21.46875,9.56506 -21.46875,21.53125 0,7.23783 3.56195,13.59757 8.96875,17.5 -0.25163,2.9e-4 -0.95943,-3.1e-4 -1.1875,0 l 0,5.65625 24,0 c 1.28732,5.53295 6.23327,9.65624 12.15625,9.65625 5.92495,0 10.87095,-4.12052 12.15625,-9.65625 l 24,0 0,-5.65625 c 0,0 -1.1268,1e-5 -1.15625,0 5.4068,-3.90243 8.96875,-10.26217 8.96875,-17.5 0,-11.96619 -9.69163,-21.53125 -21.4375,-21.53125 -1.30564,0 -2.59894,0.0855 -3.84375,0.3125 1.80382,-3.14438 2.84375,-6.78042 2.84375,-10.65625 0,-11.85044 -9.64958,-21.5 -21.5,-21.5 -0.26979,0 -0.62697,-0.0237 -1.09375,0 z m 0.1875,4 c 0.19794,-0.01 0.50294,0 0.90625,0 9.68866,0 17.5,7.81132 17.5,17.5 0,9.68868 -7.81134,17.5 -17.5,17.5 -9.68868,0 -17.5,-7.81132 -17.5,-17.5 0,-9.38547 7.33849,-17.03085 16.59375,-17.5 z M 127.5,162.28125 c 9.79323,0 17.5625,7.83333 17.5625,17.40625 0,9.57292 -7.76927,17.40625 -17.5625,17.40625 -9.79323,0 -17.59375,-7.83333 -17.59375,-17.40625 0,-9.57292 7.80052,-17.40625 17.59375,-17.40625 z m 45,0 c 9.79323,0 17.5625,7.83333 17.5625,17.40625 0,9.57292 -7.76927,17.40625 -17.5625,17.40625 -9.79323,0 -17.59375,-7.83333 -17.59375,-17.40625 0,-9.57292 7.80052,-17.40625 17.59375,-17.40625 z m -26.4375,6.65625 c 1.27919,0.23841 2.5905,0.375 3.9375,0.375 1.33613,0 2.63675,-0.14034 3.90625,-0.375 -1.82409,3.16237 -2.875,6.81865 -2.875,10.75 0,2.87494 0.57915,5.62454 1.59375,8.125 -0.85282,-0.18402 -1.74772,-0.28125 -2.65625,-0.28125 -0.89306,0 -1.75431,0.10307 -2.59375,0.28125 1.01379,-2.4996 1.5625,-5.25127 1.5625,-8.125 0,-3.93402 -1.04862,-7.58618 -2.875,-10.75 z m 3.90625,23.5625 c 3.13994,0 5.82052,1.94755 6.9375,4.6875 0.35575,0.87267 0.5625,1.81244 0.5625,2.8125 0,4.14 -3.36,7.5 -7.5,7.5 -4.14,0 -7.5,-3.36 -7.5,-7.5 0,-1.00006 0.20675,-1.93983 0.5625,-2.8125 1.11698,-2.73995 3.79756,-4.6875 6.9375,-4.6875 z m -6.9375,4.6875 c 6.34512,4.6e-4 8.04119,-0.001 13.875,0 -4.67237,-0.007 -9.19071,-0.007 -13.875,0 z" transform="translate(0,-80)" style="fill:#000407;fill-opacity:1;fill-rule:evenodd;stroke:none"/></g></g></svg>