<svg xmlns="http://www.w3.org/2000/svg" xmlns:svg="http://www.w3.org/2000/svg" xmlns:xlink="http://www.w3.org/1999/xlink" id="svg2" width="60" height="40" version="1.1" style="display:inline"><defs id="defs4"><linearGradient id="linearGradient3638"><stop id="stop3640" offset="0" style="stop-color:#80a4c4;stop-opacity:1"/><stop style="stop-color:#fff;stop-opacity:1" id="stop3642" offset=".18"/><stop id="stop3646" offset=".499" style="stop-color:#fff;stop-opacity:1"/><stop id="stop3644" offset="1" style="stop-color:#80a4c4;stop-opacity:1"/></linearGradient><linearGradient id="linearGradient3606"><stop style="stop-color:#80a4c4;stop-opacity:1" id="stop3608" offset="0"/><stop id="stop3614" offset=".317" style="stop-color:#fff;stop-opacity:1"/><stop style="stop-color:#80a4c4;stop-opacity:1" id="stop3610" offset="1"/></linearGradient><linearGradient id="linearGradient3612" x1="50.003" x2="50.003" y1="1012.422" y2="1052.36" gradientTransform="matrix(0.5930728,0,0,0.98913378,0.3448493,11.189869)" gradientUnits="userSpaceOnUse" xlink:href="#linearGradient3606"/><linearGradient id="linearGradient3636" x1="50.003" x2="50.003" y1="1012.422" y2="1052.36" gradientUnits="userSpaceOnUse" xlink:href="#linearGradient3638"/></defs><metadata id="metadata7"/><g id="layer1" transform="translate(0,-1012.3622)" style="display:inline"><rect id="rect3618" width="59.013" height="39.013" x=".494" y="1012.856" rx="4.95" ry="4.924" style="fill:url(#linearGradient3612);fill-opacity:1;stroke:#000;stroke-width:.98735023;stroke-linejoin:round;stroke-miterlimit:4;stroke-opacity:1;stroke-dasharray:none;display:inline"/><rect style="fill:#d40000;fill-opacity:1;stroke:#000;stroke-width:.78358072;stroke-opacity:1" id="rect2818" width="15.231" height="20.157" x="4.46" y="1027.846"/><path style="fill:#00d400;fill-opacity:1;stroke:#000;stroke-width:.83645499px;stroke-linecap:butt;stroke-linejoin:miter;stroke-opacity:1" id="path2820" d="m 34.95512,1047.953 20.258116,0 -10.165811,-19.7086 -10.092305,19.7086 z"/><path style="fill:#d40000;fill-opacity:1;stroke:#000;stroke-opacity:1" id="path2824" d="m 36.190476,11.369047 c 0,5.325603 -4.783624,9.642858 -10.684523,9.642858 -5.9009,0 -10.684524,-4.317255 -10.684524,-9.642858 0,-5.325603 4.783624,-9.6428574 10.684524,-9.6428574 5.900899,0 10.684523,4.3172544 10.684523,9.6428574 z" transform="matrix(0.7128465,0,0,0.78804359,11.900236,1015.3897)"/></g></svg>