<svg xmlns="http://www.w3.org/2000/svg" xmlns:svg="http://www.w3.org/2000/svg" xmlns:xlink="http://www.w3.org/1999/xlink" id="svg2" width="32" height="32" version="1.1" style="display:inline"><defs id="defs4"><linearGradient id="linearGradient3638"><stop id="stop3640" offset="0" style="stop-color:#80a4c4;stop-opacity:1"/><stop style="stop-color:#fff;stop-opacity:1" id="stop3642" offset=".18"/><stop id="stop3646" offset=".499" style="stop-color:#fff;stop-opacity:1"/><stop id="stop3644" offset="1" style="stop-color:#80a4c4;stop-opacity:1"/></linearGradient><linearGradient id="linearGradient3606"><stop style="stop-color:#80a4c4;stop-opacity:1" id="stop3608" offset="0"/><stop id="stop3614" offset=".317" style="stop-color:#fff;stop-opacity:1"/><stop style="stop-color:#80a4c4;stop-opacity:1" id="stop3610" offset="1"/></linearGradient><linearGradient id="linearGradient3612" x1="50.003" x2="50.003" y1="1012.422" y2="1052.36" gradientTransform="matrix(0.31177734,0,0,0.78655888,0.41033864,224.32632)" gradientUnits="userSpaceOnUse" xlink:href="#linearGradient3606"/><linearGradient id="linearGradient3636" x1="50.003" x2="50.003" y1="1012.422" y2="1052.36" gradientUnits="userSpaceOnUse" xlink:href="#linearGradient3638"/></defs><metadata id="metadata7"/><g id="layer1" transform="translate(0,-1020.3622)" style="display:inline"><rect id="rect3618" width="31.023" height="31.023" x=".489" y="1020.851" rx="4.886" ry="4.886" style="fill:url(#linearGradient3612);fill-opacity:1;stroke:#000;stroke-width:.97715217;stroke-linejoin:round;stroke-miterlimit:4;stroke-opacity:1;stroke-dasharray:none;display:inline"/><g style="display:inline" id="layer10" transform="matrix(0.3,0,0,0.3,-37.423271,1020.7188)"><path id="path2520-0" d="m 136.13804,47.266208 -0.375,35.062502 28.34375,0 0,-35.062502 -27.96875,0 z m 4.9375,4.59375 18.04168,-0.04398 0.0648,25.500002 -18.2824,0.044 0.17592,-25.500002 z" style="fill:#000407;fill-opacity:1;fill-rule:evenodd;stroke:none"/><g id="g2900" transform="matrix(1,0,0,0.74930505,-10.032202,30.638143)" style="display:inline"><path style="fill:#000407;fill-opacity:1;fill-rule:evenodd;stroke:none" id="path2902" d="m 197.875,108.625 0,17.71875 4.25,0 0,-17.71875 -4.25,0 z" transform="translate(-40,-40)"/></g><path id="path24640" d="m 141.0061,128.94542 c 0.0212,-4.56684 0.0726,-10.27657 0.11441,-12.68827 l 0.076,-4.38492 8.94197,0 8.94196,0 0,12.68827 0,12.68827 -9.05638,0 -9.05637,0 0.0385,-8.30335 0,0 z" transform="translate(0,-60)" style="fill:#d40000;fill-opacity:1;stroke:#000;stroke-width:.08292987;stroke-miterlimit:4;stroke-opacity:1;stroke-dasharray:none"/></g><g style="display:inline" id="layer9" transform="matrix(0.3,0,0,0.3,-21.47348,1020.7746)"><path id="path4179" d="m 149.99545,45.458233 -18.16912,36.963897 36.2188,-0.004 -18.0057,-36.960347 -0.044,4.5e-4 z m -0.0247,10.4431 11.11743,21.535037 -22.19017,-0.0688 11.07274,-21.46622 z" style="fill:#000407;fill-opacity:1;fill-rule:evenodd;stroke:none"/><g id="g2894" transform="matrix(1,0,0,0.74930505,-10.032202,30.638143)" style="display:inline"><path id="path2896" d="m 197.875,108.625 0,17.71875 4.25,0 0,-17.71875 -4.25,0 z" transform="translate(-40,-40)" style="fill:#000407;fill-opacity:1;fill-rule:evenodd;stroke:none"/></g><path id="path24044" d="m 139.52823,137.26222 -0.45756,-0.0756 5.43335,-10.53409 c 2.98834,-5.79374 5.46883,-10.49587 5.51219,-10.44916 0.0682,0.0734 9.46976,18.25854 10.54274,20.39237 l 0.39094,0.77747 -10.48205,-0.0176 c -5.76513,-0.01 -10.68796,-0.0517 -10.93961,-0.0933 l 0,0 z" transform="translate(0,-60)" style="fill:#00d400;fill-opacity:1;stroke:#000;stroke-width:.08292987;stroke-miterlimit:4;stroke-opacity:1;stroke-dasharray:none"/></g><g style="display:inline" id="layer11" transform="matrix(0.3,0,0,0.3,-28.976386,1008.7425)"><g id="g3206" transform="translate(-12.572659,71.65167)"><path id="path13269" d="m 162.47651,-23.366875 c -9.35666,0 -17,7.643343 -17,17.0000002 0,9.356657 7.64334,16.9999998 17,16.9999998 9.35666,0 17,-7.6433428 17,-16.9999998 0,-9.3566572 -7.64334,-17.0000002 -17,-17.0000002 z m 0,5 c 6.65134,0 12,5.348657 12,12.0000002 0,6.65134297 -5.34866,12 -12,12 -6.65134,0 -12,-5.34865703 -12,-12 0,-6.6513432 5.34866,-12.0000002 12,-12.0000002 z" style="fill:#000407;fill-opacity:1;fill-rule:evenodd;stroke:none"/></g><g id="g2906" transform="matrix(1,0,0,0.74930505,-10.032202,30.638143)" style="display:inline"><path id="path2908" d="m 197.875,108.625 0,17.71875 4.25,0 0,-17.71875 -4.25,0 z" transform="translate(-40,-40)" style="fill:#000407;fill-opacity:1;fill-rule:evenodd;stroke:none"/></g><path id="path24726" d="m 148.49112,137.12752 c -4.78582,-0.60381 -8.82018,-4.05927 -10.05561,-8.61269 -1.17978,-4.34836 0.10444,-8.94931 3.33198,-11.93744 2.1507,-1.99117 4.71024,-3.05014 7.6723,-3.17428 5.70119,-0.23895 10.54969,3.41989 12.06529,9.10488 0.31589,1.18492 0.38117,3.52541 0.13469,4.8298 -0.80101,4.23913 -3.52966,7.53267 -7.54413,9.10592 -1.54834,0.6068 -3.92071,0.89625 -5.60452,0.68381 l 0,0 z" transform="translate(0,-60)" style="fill:#d40000;fill-opacity:1;stroke:#000;stroke-width:.08292987;stroke-miterlimit:4;stroke-opacity:1;stroke-dasharray:none"/></g></g></svg>