<svg xmlns="http://www.w3.org/2000/svg" xmlns:svg="http://www.w3.org/2000/svg" xmlns:xlink="http://www.w3.org/1999/xlink" id="svg2" width="25" height="25" version="1.1" style="display:inline"><defs id="defs4"><linearGradient id="linearGradient3638"><stop id="stop3640" offset="0" style="stop-color:#80a4c4;stop-opacity:1"/><stop style="stop-color:#fff;stop-opacity:1" id="stop3642" offset=".18"/><stop id="stop3646" offset=".499" style="stop-color:#fff;stop-opacity:1"/><stop id="stop3644" offset="1" style="stop-color:#80a4c4;stop-opacity:1"/></linearGradient><linearGradient id="linearGradient3606"><stop style="stop-color:#80a4c4;stop-opacity:1" id="stop3608" offset="0"/><stop id="stop3614" offset=".317" style="stop-color:#fff;stop-opacity:1"/><stop style="stop-color:#80a4c4;stop-opacity:1" id="stop3610" offset="1"/></linearGradient><linearGradient id="linearGradient3612" x1="50.003" x2="50.003" y1="1012.422" y2="1052.36" gradientTransform="matrix(0.24129247,0,0,0.60873805,0.43476243,411.40674)" gradientUnits="userSpaceOnUse" xlink:href="#linearGradient3606"/><linearGradient id="linearGradient3636" x1="50.003" x2="50.003" y1="1012.422" y2="1052.36" gradientUnits="userSpaceOnUse" xlink:href="#linearGradient3638"/></defs><metadata id="metadata7"/><g id="layer1" transform="translate(0,-1027.3622)" style="display:inline"><rect id="rect3618" width="24.009" height="24.009" x=".495" y="1027.858" rx="5" ry="5" style="fill:url(#linearGradient3612);fill-opacity:1;stroke:#000;stroke-width:.99062473;stroke-linejoin:round;stroke-miterlimit:4;stroke-opacity:1;stroke-dasharray:none;display:inline"/><g style="display:inline" id="layer9" transform="matrix(0.3,0,0,0.3,-32.477343,1027.6281)"><path id="path4179" d="m 150.08836,15.229831 -18.16912,36.9639 36.2188,-0.004 -18.0057,-36.96035 -0.044,4.5e-4 z m -0.0247,10.4431 11.11743,21.535039 -22.19017,-0.06882 11.07274,-21.466222 z" style="fill:#000407;fill-opacity:1;fill-rule:evenodd;stroke:none"/><g id="g2884" transform="matrix(1,0,0,0.80521456,-10.008382,-3.1935566)" style="display:inline"><path id="path2886" d="m 197.875,108.625 0,17.71875 4.25,0 0,-17.71875 -4.25,0 z" transform="translate(-40,-40)" style="fill:#000407;fill-opacity:1;fill-rule:evenodd;stroke:none"/></g></g></g></svg>