<svg xmlns="http://www.w3.org/2000/svg" xmlns:svg="http://www.w3.org/2000/svg" xmlns:xlink="http://www.w3.org/1999/xlink" id="svg2" width="30" height="32" version="1.1" style="display:inline"><defs id="defs4"><linearGradient id="linearGradient3638"><stop id="stop3640" offset="0" style="stop-color:#80a4c4;stop-opacity:1"/><stop style="stop-color:#fff;stop-opacity:1" id="stop3642" offset=".18"/><stop id="stop3646" offset=".499" style="stop-color:#fff;stop-opacity:1"/><stop id="stop3644" offset="1" style="stop-color:#80a4c4;stop-opacity:1"/></linearGradient><linearGradient id="linearGradient3606"><stop style="stop-color:#80a4c4;stop-opacity:1" id="stop3608" offset="0"/><stop id="stop3614" offset=".317" style="stop-color:#fff;stop-opacity:1"/><stop style="stop-color:#80a4c4;stop-opacity:1" id="stop3610" offset="1"/></linearGradient><linearGradient id="linearGradient3612" x1="50.003" x2="50.003" y1="1012.422" y2="1052.36" gradientTransform="matrix(0.29168745,0,0,0.78658387,0.41488489,224.30043)" gradientUnits="userSpaceOnUse" xlink:href="#linearGradient3606"/><linearGradient id="linearGradient3636" x1="50.003" x2="50.003" y1="1012.422" y2="1052.36" gradientUnits="userSpaceOnUse" xlink:href="#linearGradient3638"/></defs><metadata id="metadata7"/><g id="layer1" transform="translate(0,-1020.3622)" style="display:inline"><rect id="rect3618" width="29.024" height="31.024" x=".488" y="1020.85" rx="4.877" ry="4.885" style="fill:url(#linearGradient3612);fill-opacity:1;stroke:#000;stroke-width:.9761619;stroke-linejoin:round;stroke-miterlimit:4;stroke-opacity:1;stroke-dasharray:none;display:inline"/><g id="g3653" transform="matrix(0.2,0,0,0.2,-14.916282,1011.7454)" style="display:inline"><g id="g3678"><path id="path3655" d="m 108.23157,137.16671 0,5.65625 29.6875,0 c 1.28732,5.53295 6.23327,9.65624 12.15625,9.65625 5.92495,0 10.87095,-4.12052 12.15625,-9.65625 l 29.84375,0 0,-0.0625 0,-5.59375 -83.84375,0 z m 54,0 c -1.2853,-5.53573 -6.2313,-9.65625 -12.15625,-9.65625 -5.92298,1e-5 -10.86893,4.1233 -12.15625,9.65625 l 24.3125,0 z m -12.15625,-4.6875 c 4.14,0 7.5,3.36 7.5,7.5 0,4.14 -3.36,7.5 -7.5,7.5 -4.14,0 -7.5,-3.36 -7.5,-7.5 0,-4.14 3.36,-7.5 7.5,-7.5 z" style="fill:#000407;fill-opacity:1;fill-rule:evenodd;stroke:none"/><path style="fill:none;stroke:#000;stroke-width:4.64683294;stroke-miterlimit:4;stroke-opacity:1;stroke-dasharray:none;display:inline" id="path3649" d="m 15.635753,156.98217 c -3.114542,-15.3273 5.88908,-30.53085 20.984529,-35.43455" transform="matrix(1.4164674,0.47394337,-0.48206808,1.4407496,172.65842,-93.634291)"/><path style="fill:none;stroke:#000;stroke-width:3.59378028;stroke-miterlimit:4;stroke-opacity:1;stroke-dasharray:none;display:inline" id="path3651" d="m 110.53956,99.547479 c 7.81904,2.710721 13.70924,9.319411 15.58437,17.485361" transform="matrix(1.8607362,0.62259362,-0.61353771,1.8336709,19.201188,-153.26853)"/></g></g></g></svg>