<svg xmlns="http://www.w3.org/2000/svg" xmlns:svg="http://www.w3.org/2000/svg" xmlns:xlink="http://www.w3.org/1999/xlink" id="svg2" width="32" height="32" version="1.1" style="display:inline"><defs id="defs4"><linearGradient id="linearGradient3638"><stop id="stop3640" offset="0" style="stop-color:#80a4c4;stop-opacity:1"/><stop style="stop-color:#fff;stop-opacity:1" id="stop3642" offset=".18"/><stop id="stop3646" offset=".499" style="stop-color:#fff;stop-opacity:1"/><stop id="stop3644" offset="1" style="stop-color:#80a4c4;stop-opacity:1"/></linearGradient><linearGradient id="linearGradient3606"><stop style="stop-color:#80a4c4;stop-opacity:1" id="stop3608" offset="0"/><stop id="stop3614" offset=".317" style="stop-color:#fff;stop-opacity:1"/><stop style="stop-color:#80a4c4;stop-opacity:1" id="stop3610" offset="1"/></linearGradient><linearGradient id="linearGradient3612" x1="50.003" x2="50.003" y1="1012.422" y2="1052.36" gradientTransform="matrix(0.31177734,0,0,0.78655888,0.41033864,224.32632)" gradientUnits="userSpaceOnUse" xlink:href="#linearGradient3606"/><linearGradient id="linearGradient3636" x1="50.003" x2="50.003" y1="1012.422" y2="1052.36" gradientUnits="userSpaceOnUse" xlink:href="#linearGradient3638"/></defs><metadata id="metadata7"/><g id="layer1" transform="translate(0,-1020.3622)" style="display:inline"><rect id="rect3618" width="31.023" height="31.023" x=".489" y="1020.851" rx="4.886" ry="4.886" style="fill:url(#linearGradient3612);fill-opacity:1;stroke:#000;stroke-width:.97715217;stroke-linejoin:round;stroke-miterlimit:4;stroke-opacity:1;stroke-dasharray:none;display:inline"/><g style="display:inline" id="layer15" transform="matrix(0.2,0,0,0.2,1.8000784,986.13513)"><path id="path3761" d="M 92.810358,239.63482 C 82.571313,233.28646 75.679672,224.4594 73.349836,214.70911" transform="matrix(2.1197953,0,0,2.8559584,-123.72047,-392.23063)" style="fill:none;stroke:#d400d4;stroke-width:4.064219;stroke-miterlimit:4;stroke-opacity:1;stroke-dasharray:none"/><path id="path3778" d="M 84.411253,255.71211 C 74.327971,247.4887 67.546218,236.04886 65.264662,223.41457" transform="matrix(1.6461344,0,0,1.6856173,-47.712493,-160.67051)" style="fill:none;stroke:#d400d4;stroke-width:6.00326967;stroke-miterlimit:4;stroke-opacity:1;stroke-dasharray:none"/><path id="path3780" d="m 48.697153,195.52688 c -1.731203,-1.04404 -2.898818,-2.50278 -3.294988,-4.11652" transform="matrix(6.590239,0,0,9.0257615,-210.72033,-1516.5985)" style="fill:none;stroke:#d400d4;stroke-width:1.2993052;stroke-miterlimit:4;stroke-opacity:1;stroke-dasharray:none"/></g></g></svg>