<svg xmlns="http://www.w3.org/2000/svg" xmlns:svg="http://www.w3.org/2000/svg" xmlns:xlink="http://www.w3.org/1999/xlink" id="svg2" width="25" height="25" version="1.1" style="display:inline"><defs id="defs4"><linearGradient id="linearGradient3638"><stop id="stop3640" offset="0" style="stop-color:#80a4c4;stop-opacity:1"/><stop style="stop-color:#fff;stop-opacity:1" id="stop3642" offset=".18"/><stop id="stop3646" offset=".499" style="stop-color:#fff;stop-opacity:1"/><stop id="stop3644" offset="1" style="stop-color:#80a4c4;stop-opacity:1"/></linearGradient><linearGradient id="linearGradient3606"><stop style="stop-color:#80a4c4;stop-opacity:1" id="stop3608" offset="0"/><stop id="stop3614" offset=".317" style="stop-color:#fff;stop-opacity:1"/><stop style="stop-color:#80a4c4;stop-opacity:1" id="stop3610" offset="1"/></linearGradient><linearGradient id="linearGradient3612" x1="50.003" x2="50.003" y1="1012.422" y2="1052.36" gradientTransform="matrix(0.24142785,0,0,0.60907959,0.42799225,411.05426)" gradientUnits="userSpaceOnUse" xlink:href="#linearGradient3606"/><linearGradient id="linearGradient3636" x1="50.003" x2="50.003" y1="1012.422" y2="1052.36" gradientUnits="userSpaceOnUse" xlink:href="#linearGradient3638"/><linearGradient id="linearGradient3636-2" x1="50.003" x2="50.003" y1="1012.422" y2="1052.36" gradientUnits="userSpaceOnUse" xlink:href="#linearGradient3638-0"/><linearGradient id="linearGradient3638-0"><stop style="stop-color:#80a4c4;stop-opacity:1" id="stop3640-2" offset="0"/><stop id="stop3642-1" offset=".18" style="stop-color:#fff;stop-opacity:1"/><stop style="stop-color:#fff;stop-opacity:1" id="stop3646-1" offset=".499"/><stop style="stop-color:#80a4c4;stop-opacity:1" id="stop3644-9" offset="1"/></linearGradient></defs><metadata id="metadata7"/><g id="layer1" transform="translate(0,-1027.3622)" style="display:inline"><rect id="rect3618" width="24.023" height="24.023" x=".489" y="1027.851" rx="4.886" ry="4.886" style="fill:url(#linearGradient3612);fill-opacity:1;stroke:#000;stroke-width:.97715223;stroke-linejoin:round;stroke-miterlimit:4;stroke-opacity:1;stroke-dasharray:none;display:inline"/><g id="g8557"><path style="fill:none;stroke:#000;stroke-width:.98589104;stroke-linecap:round;stroke-miterlimit:4;stroke-opacity:1" id="path8499" d="m -25.523111,12.922413 c 0.322337,-2.479847 2.51077,-4.2175756 4.888003,-3.8813249 1.925937,0.2724164 3.444006,1.8462679 3.717034,3.8536189" transform="matrix(1.0359712,0,0,0.99310345,34.471899,1023.9321)"/><path id="path8501" d="m 8.1849279,1036.0796 -0.972272,4.0438" style="fill:none;stroke:#000;stroke-width:1px;stroke-linecap:round;stroke-linejoin:miter;stroke-opacity:1"/><path style="fill:none;stroke:#000;stroke-width:1px;stroke-linecap:round;stroke-linejoin:miter;stroke-opacity:1" id="path8503" d="m 16.780696,1036.0575 0.972272,4.0438"/><path style="fill:none;stroke:#000;stroke-width:1;stroke-linecap:round;stroke-miterlimit:4;stroke-opacity:1" id="path8505" d="m -19.465228,11.09555 c -0.261119,1.146652 -1.269011,1.968524 -2.444753,1.993539" transform="translate(26.635996,1029.1329)"/><path style="fill:none;stroke:#000;stroke-width:1;stroke-linecap:round;stroke-miterlimit:4;stroke-opacity:1" id="path8507" d="m -19.465228,11.09555 c -0.261119,1.146652 -1.269011,1.968524 -2.444753,1.993539" transform="matrix(-1,0,0,1,-1.6798341,1029.1329)"/><path style="fill:none;stroke:#000;stroke-width:1.12694275;stroke-linecap:round;stroke-miterlimit:4;stroke-opacity:1" id="path8509" d="m -22.432892,9.3080478 c -0.779367,-0.050816 -1.369651,-0.718877 -1.318434,-1.4921558 0.05061,-0.7641941 0.70946,-1.346966 1.480407,-1.3094718" transform="matrix(0.88388342,0,0,0.89084314,24.297565,1036.4249)"/><path style="fill:none;stroke:#000;stroke-width:1.12694275;stroke-linecap:round;stroke-miterlimit:4;stroke-opacity:1" id="path8511" d="m -22.432892,9.3080478 c -0.779367,-0.050816 -1.369651,-0.718877 -1.318434,-1.4921558 0.05061,-0.7641941 0.70946,-1.346966 1.480407,-1.3094718" transform="matrix(-0.88388342,0,0,0.89084314,0.71967391,1036.447)"/><path id="path8513" d="m 4.4505199,1044.7196 16.0424861,0.022 0,0" style="fill:none;stroke:#000;stroke-width:1px;stroke-linecap:round;stroke-linejoin:miter;stroke-opacity:1"/><path style="fill:#000;fill-opacity:1;stroke:#000;stroke-width:.9052617;stroke-linecap:round;stroke-miterlimit:4;stroke-opacity:1" id="path8515" d="m -20.514533,5.0230861 c 0.317654,0.5477341 -0.167996,1.1456182 -1.08473,1.3354116 -0.916734,0.1897933 -1.917403,-0.1003749 -2.235058,-0.648109 -0.130689,-0.2253483 -0.129035,-0.4705702 0.0047,-0.695282" transform="matrix(0.85386474,0,0,1.4291,31.435803,1037.962)"/></g></g></svg>