<svg xmlns="http://www.w3.org/2000/svg" xmlns:svg="http://www.w3.org/2000/svg" xmlns:xlink="http://www.w3.org/1999/xlink" id="svg2" width="25" height="25" version="1.1" style="display:inline"><defs id="defs4"><linearGradient id="linearGradient3638"><stop id="stop3640" offset="0" style="stop-color:#80a4c4;stop-opacity:1"/><stop style="stop-color:#fff;stop-opacity:1" id="stop3642" offset=".18"/><stop id="stop3646" offset=".499" style="stop-color:#fff;stop-opacity:1"/><stop id="stop3644" offset="1" style="stop-color:#80a4c4;stop-opacity:1"/></linearGradient><linearGradient id="linearGradient3606"><stop style="stop-color:#80a4c4;stop-opacity:1" id="stop3608" offset="0"/><stop id="stop3614" offset=".317" style="stop-color:#fff;stop-opacity:1"/><stop style="stop-color:#80a4c4;stop-opacity:1" id="stop3610" offset="1"/></linearGradient><linearGradient id="linearGradient3612" x1="50.003" x2="50.003" y1="1012.422" y2="1052.36" gradientTransform="matrix(0.24142785,0,0,0.60907959,0.42799225,411.05426)" gradientUnits="userSpaceOnUse" xlink:href="#linearGradient3606"/><linearGradient id="linearGradient3636" x1="50.003" x2="50.003" y1="1012.422" y2="1052.36" gradientUnits="userSpaceOnUse" xlink:href="#linearGradient3638"/><linearGradient id="linearGradient3636-2" x1="50.003" x2="50.003" y1="1012.422" y2="1052.36" gradientUnits="userSpaceOnUse" xlink:href="#linearGradient3638-0"/><linearGradient id="linearGradient3638-0"><stop style="stop-color:#80a4c4;stop-opacity:1" id="stop3640-2" offset="0"/><stop id="stop3642-1" offset=".18" style="stop-color:#fff;stop-opacity:1"/><stop style="stop-color:#fff;stop-opacity:1" id="stop3646-1" offset=".499"/><stop style="stop-color:#80a4c4;stop-opacity:1" id="stop3644-9" offset="1"/></linearGradient></defs><metadata id="metadata7"/><g id="layer1" transform="translate(0,-1027.3622)" style="display:inline"><rect id="rect3618" width="24.023" height="24.023" x=".489" y="1027.851" rx="4.886" ry="4.886" style="fill:url(#linearGradient3612);fill-opacity:1;stroke:#000;stroke-width:.97715223;stroke-linejoin:round;stroke-miterlimit:4;stroke-opacity:1;stroke-dasharray:none;display:inline"/><g id="g9336"><path id="path9304" d="m -38.051061,-1.0720228 a 0.45802203,0.42278954 0 1 1 -0.916044,0 0.45802203,0.42278954 0 1 1 0.916044,0 z" transform="matrix(1.0916506,0,0,1.1826215,53.81285,1042.4898)" style="fill:#000;fill-opacity:1;stroke:#000;stroke-width:.88010663;stroke-linecap:round;stroke-miterlimit:4;stroke-opacity:1;stroke-dasharray:none"/><path style="fill:#000;fill-opacity:1;stroke:#000;stroke-width:.88010663;stroke-linecap:round;stroke-miterlimit:4;stroke-opacity:1;stroke-dasharray:none" id="path9306" d="m -38.051061,-1.0720228 a 0.45802203,0.42278954 0 1 1 -0.916044,0 0.45802203,0.42278954 0 1 1 0.916044,0 z" transform="matrix(1.0916506,0,0,1.1826215,55.926797,1040.9396)"/><path id="path9308" d="m -38.051061,-1.0720228 a 0.45802203,0.42278954 0 1 1 -0.916044,0 0.45802203,0.42278954 0 1 1 0.916044,0 z" transform="matrix(1.0916506,0,0,1.1826215,52.614945,1039.3893)" style="fill:#000;fill-opacity:1;stroke:#000;stroke-width:.88010663;stroke-linecap:round;stroke-miterlimit:4;stroke-opacity:1;stroke-dasharray:none"/><path id="path9310" d="m 14.02252,1037.0008 3.734641,-6.0599" style="fill:none;stroke:#000;stroke-width:1px;stroke-linecap:round;stroke-linejoin:miter;stroke-opacity:1"/><path id="path9312" d="M 11.838108,8.5816721 11.626713,5.5516803" transform="translate(0,1027.3622)" style="fill:none;stroke:#000;stroke-width:1px;stroke-linecap:round;stroke-linejoin:miter;stroke-opacity:1"/><path id="path9314" d="M 8.596721,8.7930669 4.5802202,5.1993557" transform="translate(0,1027.3622)" style="fill:none;stroke:#000;stroke-width:1px;stroke-linecap:round;stroke-linejoin:miter;stroke-opacity:1"/><path id="path9316" d="m 9.7241599,13.655147 -6.4123084,3.664176 0,0" transform="translate(0,1027.3622)" style="fill:none;stroke:#000;stroke-width:1px;stroke-linecap:round;stroke-linejoin:miter;stroke-opacity:1"/><path id="path9318" d="m 7.680677,11.400269 -2.5367374,-0.704649 0,0" transform="translate(0,1027.3622)" style="fill:none;stroke:#000;stroke-width:1px;stroke-linecap:round;stroke-linejoin:miter;stroke-opacity:1"/><path id="path9320" d="M 10.00602,15.41677 8.3853262,17.248858" transform="translate(0,1027.3622)" style="fill:none;stroke:#000;stroke-width:1px;stroke-linecap:round;stroke-linejoin:miter;stroke-opacity:1"/><path id="path9322" d="m 13.176941,15.769094 2.325343,6.412309" transform="translate(0,1027.3622)" style="fill:none;stroke:#000;stroke-width:1px;stroke-linecap:round;stroke-linejoin:miter;stroke-opacity:1"/><path id="path9324" d="m 14.797634,14.007471 2.818598,2.184413 0,0 0,0" transform="translate(0,1027.3622)" style="fill:none;stroke:#000;stroke-width:1px;stroke-linecap:round;stroke-linejoin:miter;stroke-opacity:1"/><path id="path9326" d="M 15.784144,11.259339 20.152969,9.4272513" transform="translate(0,1027.3622)" style="fill:none;stroke:#000;stroke-width:1px;stroke-linecap:round;stroke-linejoin:miter;stroke-opacity:1"/><path id="path9328" d="m -29.736199,-1.7062072 a 1.3036011,1.1274388 0 0 1 -2.262936,0.76336412" transform="matrix(0.47944112,0.83041639,-0.9601689,0.55435377,21.272791,1072.29)" style="fill:none;stroke:#000;stroke-width:.96985954;stroke-linecap:round;stroke-miterlimit:4;stroke-opacity:1;stroke-dasharray:none"/><path style="fill:none;stroke:#000;stroke-width:.96985954;stroke-linecap:round;stroke-miterlimit:4;stroke-opacity:1;stroke-dasharray:none" id="path9330" d="m -29.736199,-1.7062072 a 1.3036011,1.1274388 0 0 1 -2.262936,0.76336412" transform="matrix(-0.61635763,0.73454641,-0.84931925,-0.71266348,-16.068001,1059.3739)"/><path id="path9332" d="m -29.736199,-1.7062072 a 1.3036011,1.1274388 0 0 1 -2.262936,0.76336412" transform="matrix(-0.94431467,-0.16650816,0.19252505,-1.0918638,-17.436754,1024.8291)" style="fill:none;stroke:#000;stroke-width:.96985954;stroke-linecap:round;stroke-miterlimit:4;stroke-opacity:1;stroke-dasharray:none"/><path style="fill:none;stroke:#000;stroke-width:.96985954;stroke-linecap:round;stroke-miterlimit:4;stroke-opacity:1;stroke-dasharray:none" id="path9334" d="m -29.736199,-1.7062072 a 1.3036011,1.1274388 0 0 1 -2.262936,0.76336412" transform="matrix(0.83041638,-0.47944113,0.55435378,0.9601689,45.188846,1031.1166)"/></g></g></svg>