<svg xmlns="http://www.w3.org/2000/svg" xmlns:svg="http://www.w3.org/2000/svg" xmlns:xlink="http://www.w3.org/1999/xlink" id="svg2" width="25" height="25" version="1.1" style="display:inline"><defs id="defs4"><linearGradient id="linearGradient3638"><stop id="stop3640" offset="0" style="stop-color:#80a4c4;stop-opacity:1"/><stop style="stop-color:#fff;stop-opacity:1" id="stop3642" offset=".18"/><stop id="stop3646" offset=".499" style="stop-color:#fff;stop-opacity:1"/><stop id="stop3644" offset="1" style="stop-color:#80a4c4;stop-opacity:1"/></linearGradient><linearGradient id="linearGradient3606"><stop style="stop-color:#80a4c4;stop-opacity:1" id="stop3608" offset="0"/><stop id="stop3614" offset=".317" style="stop-color:#fff;stop-opacity:1"/><stop style="stop-color:#80a4c4;stop-opacity:1" id="stop3610" offset="1"/></linearGradient><linearGradient id="linearGradient3612" x1="50.003" x2="50.003" y1="1012.422" y2="1052.36" gradientTransform="matrix(0.24142785,0,0,0.60907959,0.42799225,411.05426)" gradientUnits="userSpaceOnUse" xlink:href="#linearGradient3606"/><linearGradient id="linearGradient3636" x1="50.003" x2="50.003" y1="1012.422" y2="1052.36" gradientUnits="userSpaceOnUse" xlink:href="#linearGradient3638"/><linearGradient id="linearGradient3636-2" x1="50.003" x2="50.003" y1="1012.422" y2="1052.36" gradientUnits="userSpaceOnUse" xlink:href="#linearGradient3638-0"/><linearGradient id="linearGradient3638-0"><stop style="stop-color:#80a4c4;stop-opacity:1" id="stop3640-2" offset="0"/><stop id="stop3642-1" offset=".18" style="stop-color:#fff;stop-opacity:1"/><stop style="stop-color:#fff;stop-opacity:1" id="stop3646-1" offset=".499"/><stop style="stop-color:#80a4c4;stop-opacity:1" id="stop3644-9" offset="1"/></linearGradient></defs><metadata id="metadata7"/><g id="layer1" transform="translate(0,-1027.3622)" style="display:inline"><rect id="rect3618" width="24.023" height="24.023" x=".489" y="1027.851" rx="4.886" ry="4.886" style="fill:url(#linearGradient3612);fill-opacity:1;stroke:#000;stroke-width:.97715223;stroke-linejoin:round;stroke-miterlimit:4;stroke-opacity:1;stroke-dasharray:none;display:inline"/><g id="g9279" transform="translate(1.0569739,0.14092985)"><path id="path9269" d="m -12.613222,10.096668 c 0,4.61163 -3.659594,8.350094 -8.173931,8.350094 -4.514338,0 -8.173931,-3.738464 -8.173931,-8.350094 0,-4.6116292 3.659593,-8.3500936 8.173931,-8.3500936 4.514337,0 8.173931,3.7384644 8.173931,8.3500936 z" transform="matrix(0.85638108,0,0,0.83831393,29.029621,1029.4289)" style="fill:none;stroke:#000;stroke-width:1.18022037;stroke-linecap:round;stroke-miterlimit:4;stroke-opacity:1;stroke-dasharray:none"/><g id="g9275" transform="translate(44.815693,12.260897)"><path style="fill:#000;fill-opacity:1;stroke:#000;stroke-width:1.14491975;stroke-linecap:round;stroke-miterlimit:4;stroke-opacity:1;stroke-dasharray:none" id="path9271" d="m -49.114054,4.5651712 c 0,0.6226673 -0.520546,1.1274388 -1.162672,1.1274388 -0.642125,0 -1.162671,-0.5047715 -1.162671,-1.1274388 0,-0.6226672 0.520546,-1.1274387 1.162671,-1.1274387 0.642126,0 1.162672,0.5047715 1.162672,1.1274387 z" transform="matrix(0.86008828,0,0,0.88696607,9.2918168,1020.7478)"/><path style="fill:none;stroke:#000;stroke-width:1px;stroke-linecap:butt;stroke-linejoin:miter;stroke-opacity:1" id="path9273" d="m -34.034559,1024.7399 7.187422,12.0496"/></g></g></g></svg>