<svg xmlns="http://www.w3.org/2000/svg" xmlns:svg="http://www.w3.org/2000/svg" xmlns:xlink="http://www.w3.org/1999/xlink" id="svg2" width="25" height="25" version="1.1" style="display:inline"><defs id="defs4"><linearGradient id="linearGradient3638"><stop id="stop3640" offset="0" style="stop-color:#80a4c4;stop-opacity:1"/><stop style="stop-color:#fff;stop-opacity:1" id="stop3642" offset=".18"/><stop id="stop3646" offset=".499" style="stop-color:#fff;stop-opacity:1"/><stop id="stop3644" offset="1" style="stop-color:#80a4c4;stop-opacity:1"/></linearGradient><linearGradient id="linearGradient3606"><stop style="stop-color:#80a4c4;stop-opacity:1" id="stop3608" offset="0"/><stop id="stop3614" offset=".317" style="stop-color:#fff;stop-opacity:1"/><stop style="stop-color:#80a4c4;stop-opacity:1" id="stop3610" offset="1"/></linearGradient><linearGradient id="linearGradient3612" x1="50.003" x2="50.003" y1="1012.422" y2="1052.36" gradientTransform="matrix(0.24142785,0,0,0.60907959,0.42799225,411.05426)" gradientUnits="userSpaceOnUse" xlink:href="#linearGradient3606"/><linearGradient id="linearGradient3636" x1="50.003" x2="50.003" y1="1012.422" y2="1052.36" gradientUnits="userSpaceOnUse" xlink:href="#linearGradient3638"/><linearGradient id="linearGradient3636-2" x1="50.003" x2="50.003" y1="1012.422" y2="1052.36" gradientUnits="userSpaceOnUse" xlink:href="#linearGradient3638-0"/><linearGradient id="linearGradient3638-0"><stop style="stop-color:#80a4c4;stop-opacity:1" id="stop3640-2" offset="0"/><stop id="stop3642-1" offset=".18" style="stop-color:#fff;stop-opacity:1"/><stop style="stop-color:#fff;stop-opacity:1" id="stop3646-1" offset=".499"/><stop style="stop-color:#80a4c4;stop-opacity:1" id="stop3644-9" offset="1"/></linearGradient></defs><metadata id="metadata7"/><g id="layer1" transform="translate(0,-1027.3622)" style="display:inline"><rect id="rect3618" width="24.023" height="24.023" x=".489" y="1027.851" rx="4.886" ry="4.886" style="fill:url(#linearGradient3612);fill-opacity:1;stroke:#000;stroke-width:.97715223;stroke-linejoin:round;stroke-miterlimit:4;stroke-opacity:1;stroke-dasharray:none;display:inline"/><g id="g9261"><path id="path8487" d="m -10.437501,4.968749 c 0,5.189643 -3.727976,9.701931 -9.013957,10.910365" transform="matrix(0.72765951,0,0,0.76211692,27.685572,1026.2279)" style="fill:none;stroke:#000;stroke-width:1.34284258;stroke-linecap:round;stroke-miterlimit:4;stroke-opacity:1;stroke-dasharray:none"/><path style="fill:none;stroke:#000;stroke-width:1.34284258;stroke-linecap:round;stroke-miterlimit:4;stroke-opacity:1;stroke-dasharray:none" id="path8489" d="m -10.437501,4.968749 c 0,5.189643 -3.727976,9.701931 -9.013957,10.910365" transform="matrix(0.72765951,0,0,-0.76211692,27.685572,1053.4227)"/><path id="path8491" d="m 20.090626,1030.296 0,18.8438" style="fill:none;stroke:#000;stroke-width:1px;stroke-linecap:round;stroke-linejoin:miter;stroke-opacity:1"/><path id="path8493" d="m 13.565626,1038.3398 -7.0312503,1.5187" style="fill:none;stroke:#000;stroke-width:1px;stroke-linecap:round;stroke-linejoin:miter;stroke-opacity:1"/><path style="fill:none;stroke:#000;stroke-width:1px;stroke-linecap:round;stroke-linejoin:miter;stroke-opacity:1" id="path8495" d="m 13.565626,1041.321 -7.0312503,-1.5187"/><path id="path8497" d="m -32,7.249999 c 0,1.6913722 -1.203235,3.0625 -2.6875,3.0625 -1.484265,0 -2.6875,-1.3711278 -2.6875,-3.0625 0,-1.6913721 1.203235,-3.0625002 2.6875,-3.0625002 1.484265,0 2.6875,1.3711281 2.6875,3.0625002 z" transform="matrix(0.66976738,0,0,0.58775506,28.504433,1035.5973)" style="fill:#000;fill-opacity:1;stroke:#000;stroke-width:1.593822;stroke-linecap:round;stroke-miterlimit:4;stroke-opacity:1;stroke-dasharray:none"/></g></g></svg>