<svg xmlns="http://www.w3.org/2000/svg" xmlns:svg="http://www.w3.org/2000/svg" xmlns:xlink="http://www.w3.org/1999/xlink" id="svg2" width="25" height="25" version="1.1" style="display:inline"><defs id="defs4"><linearGradient id="linearGradient3638"><stop id="stop3640" offset="0" style="stop-color:#80a4c4;stop-opacity:1"/><stop style="stop-color:#fff;stop-opacity:1" id="stop3642" offset=".18"/><stop id="stop3646" offset=".499" style="stop-color:#fff;stop-opacity:1"/><stop id="stop3644" offset="1" style="stop-color:#80a4c4;stop-opacity:1"/></linearGradient><linearGradient id="linearGradient3606"><stop style="stop-color:#80a4c4;stop-opacity:1" id="stop3608" offset="0"/><stop id="stop3614" offset=".317" style="stop-color:#fff;stop-opacity:1"/><stop style="stop-color:#80a4c4;stop-opacity:1" id="stop3610" offset="1"/></linearGradient><linearGradient id="linearGradient3612" x1="50.003" x2="50.003" y1="1012.422" y2="1052.36" gradientTransform="matrix(0.24142785,0,0,0.60907959,0.42799225,411.05426)" gradientUnits="userSpaceOnUse" xlink:href="#linearGradient3606"/><linearGradient id="linearGradient3636" x1="50.003" x2="50.003" y1="1012.422" y2="1052.36" gradientUnits="userSpaceOnUse" xlink:href="#linearGradient3638"/><linearGradient id="linearGradient3636-2" x1="50.003" x2="50.003" y1="1012.422" y2="1052.36" gradientUnits="userSpaceOnUse" xlink:href="#linearGradient3638-0"/><linearGradient id="linearGradient3638-0"><stop style="stop-color:#80a4c4;stop-opacity:1" id="stop3640-2" offset="0"/><stop id="stop3642-1" offset=".18" style="stop-color:#fff;stop-opacity:1"/><stop style="stop-color:#fff;stop-opacity:1" id="stop3646-1" offset=".499"/><stop style="stop-color:#80a4c4;stop-opacity:1" id="stop3644-9" offset="1"/></linearGradient></defs><metadata id="metadata7"/><g id="layer1" transform="translate(0,-1027.3622)" style="display:inline"><rect id="rect3618" width="24.023" height="24.023" x=".489" y="1027.851" rx="4.886" ry="4.886" style="fill:url(#linearGradient3612);fill-opacity:1;stroke:#000;stroke-width:.97715223;stroke-linejoin:round;stroke-miterlimit:4;stroke-opacity:1;stroke-dasharray:none;display:inline"/><g id="g4498" transform="translate(29.447301,6.527236)"><path id="path4430" d="m -10.463507,7.1123838 c 0,4.2102952 -3.546966,7.6234132 -7.922371,7.6234132 -4.375404,0 -7.92237,-3.413118 -7.92237,-7.6234132 0,-4.2102947 3.546966,-7.62341304 7.92237,-7.62341304 4.375405,0 7.922371,3.41311834 7.922371,7.62341304 z" transform="matrix(1.1991361,0,0,1.246161,5.04717,1024.466)" style="fill:none;stroke:#000;stroke-width:.81804782;stroke-miterlimit:4;stroke-opacity:1;stroke-dasharray:none"/><path id="path4432" d="m -16.940748,1023.8622 -0.05,5" style="fill:none;stroke:#000;stroke-width:.99999994px;stroke-linecap:butt;stroke-linejoin:miter;stroke-opacity:1"/><path id="path4444" d="m -13.702212,22.409037 c 0,1.761169 -1.438864,3.188878 -3.213792,3.188878 -1.774928,0 -3.213792,-1.427709 -3.213792,-3.188878 0,-1.761169 1.438864,-3.188879 3.213792,-3.188879 1.774928,0 3.213792,1.42771 3.213792,3.188879 z" mask="none" transform="matrix(1.2446357,0,0,1.2543595,4.0542628,1005.2532)" style="fill:none;stroke:#000;stroke-opacity:1"/><path style="fill:none;stroke:#000;stroke-width:.99999994px;stroke-linecap:butt;stroke-linejoin:miter;stroke-opacity:1" id="path4476" d="m -16.940918,1037.8622 -0.04983,5"/><path style="fill:none;stroke:#000;stroke-width:.99999994px;stroke-linecap:butt;stroke-linejoin:miter;stroke-opacity:1" id="path4478" d="m -21.694097,1025.1225 2.456698,4.3551"/><path id="path4480" d="m -14.694245,1037.2469 2.456846,4.355" style="fill:none;stroke:#000;stroke-width:.99999994px;stroke-linecap:butt;stroke-linejoin:miter;stroke-opacity:1"/><path id="path4482" d="m -25.180468,1028.5906 4.305113,2.5433" style="fill:none;stroke:#000;stroke-width:.99999994px;stroke-linecap:butt;stroke-linejoin:miter;stroke-opacity:1"/><path style="fill:none;stroke:#000;stroke-width:.99999994px;stroke-linecap:butt;stroke-linejoin:miter;stroke-opacity:1" id="path4484" d="m -13.056219,1035.5907 4.3051914,2.5431"/><path style="fill:none;stroke:#000;stroke-width:.99999994px;stroke-linecap:butt;stroke-linejoin:miter;stroke-opacity:1" id="path4486" d="m -26.465704,1033.3372 4.999987,0.05"/><path id="path4488" d="m -12.465747,1033.3374 4.9999556,0.05" style="fill:none;stroke:#000;stroke-width:.99999994px;stroke-linecap:butt;stroke-linejoin:miter;stroke-opacity:1"/><path id="path4490" d="m -25.205501,1038.0905 4.355116,-2.4567" style="fill:none;stroke:#000;stroke-width:.99999994px;stroke-linecap:butt;stroke-linejoin:miter;stroke-opacity:1"/><path style="fill:none;stroke:#000;stroke-width:.99999994px;stroke-linecap:butt;stroke-linejoin:miter;stroke-opacity:1" id="path4492" d="m -13.081083,1031.0907 4.3550888,-2.4566"/><path style="fill:none;stroke:#000;stroke-width:.99999994px;stroke-linecap:butt;stroke-linejoin:miter;stroke-opacity:1" id="path4494" d="m -21.737483,1041.5769 2.543291,-4.3051"/><path id="path4496" d="m -14.737329,1029.4527 2.543317,-4.305" style="fill:none;stroke:#000;stroke-width:.99999994px;stroke-linecap:butt;stroke-linejoin:miter;stroke-opacity:1"/></g></g></svg>