<svg xmlns="http://www.w3.org/2000/svg" xmlns:svg="http://www.w3.org/2000/svg" xmlns:xlink="http://www.w3.org/1999/xlink" id="svg2" width="25" height="25" version="1.1" style="display:inline"><defs id="defs4"><linearGradient id="linearGradient3638"><stop id="stop3640" offset="0" style="stop-color:#80a4c4;stop-opacity:1"/><stop style="stop-color:#fff;stop-opacity:1" id="stop3642" offset=".18"/><stop id="stop3646" offset=".499" style="stop-color:#fff;stop-opacity:1"/><stop id="stop3644" offset="1" style="stop-color:#80a4c4;stop-opacity:1"/></linearGradient><linearGradient id="linearGradient3606"><stop style="stop-color:#80a4c4;stop-opacity:1" id="stop3608" offset="0"/><stop id="stop3614" offset=".317" style="stop-color:#fff;stop-opacity:1"/><stop style="stop-color:#80a4c4;stop-opacity:1" id="stop3610" offset="1"/></linearGradient><linearGradient id="linearGradient3612" x1="50.003" x2="50.003" y1="1012.422" y2="1052.36" gradientTransform="matrix(0.24142785,0,0,0.60907959,0.42799225,411.05426)" gradientUnits="userSpaceOnUse" xlink:href="#linearGradient3606"/><linearGradient id="linearGradient3636" x1="50.003" x2="50.003" y1="1012.422" y2="1052.36" gradientUnits="userSpaceOnUse" xlink:href="#linearGradient3638"/><linearGradient id="linearGradient3636-2" x1="50.003" x2="50.003" y1="1012.422" y2="1052.36" gradientUnits="userSpaceOnUse" xlink:href="#linearGradient3638-0"/><linearGradient id="linearGradient3638-0"><stop style="stop-color:#80a4c4;stop-opacity:1" id="stop3640-2" offset="0"/><stop id="stop3642-1" offset=".18" style="stop-color:#fff;stop-opacity:1"/><stop style="stop-color:#fff;stop-opacity:1" id="stop3646-1" offset=".499"/><stop style="stop-color:#80a4c4;stop-opacity:1" id="stop3644-9" offset="1"/></linearGradient></defs><metadata id="metadata7"/><g id="layer1" transform="translate(0,-1027.3622)" style="display:inline"><rect id="rect3618" width="24.023" height="24.023" x=".489" y="1027.851" rx="4.886" ry="4.886" style="fill:url(#linearGradient3612);fill-opacity:1;stroke:#000;stroke-width:.97715223;stroke-linejoin:round;stroke-miterlimit:4;stroke-opacity:1;stroke-dasharray:none;display:inline"/><g id="g9381" transform="matrix(0.76604444,0.64278762,-0.64278762,0.76604444,693.32328,263.75196)"><path id="path9373" d="m -25.155979,0.30204329 c 0,2.78254441 -2.602728,5.03824231 -5.813357,5.03824231 -3.210628,0 -5.813356,-2.2556979 -5.813356,-5.03824231 0,-2.78254439 2.602728,-5.03824239 5.813356,-5.03824239 3.210629,0 5.813357,2.255698 5.813357,5.03824239 z" transform="matrix(0.94609716,0,0,1.0916505,10.137276,1033.7079)" style="fill:none;stroke:#000;stroke-width:.98398918;stroke-linecap:round;stroke-miterlimit:4;stroke-opacity:1;stroke-dasharray:none"/><rect id="rect9375" width="9" height="2.5" x="-33.119" y="1028.793" style="fill:none;stroke:#000;stroke-width:.99999994;stroke-linecap:round;stroke-miterlimit:4;stroke-opacity:1;stroke-dasharray:none"/><path id="path9377" d="m -40.024079,-6.3568921 c 0,0.9729176 -0.88335,1.7616231 -1.973018,1.7616231 -0.470918,0 -0.926306,-0.150388 -1.283882,-0.423991" transform="matrix(-0.58239038,-0.48868358,0.54732558,-0.65227723,-43.647617,1002.2789)" style="fill:none;stroke:#000;stroke-width:1.24288452;stroke-linecap:round;stroke-miterlimit:4;stroke-opacity:1;stroke-dasharray:none"/><path id="path9379" d="m -41.010587,-7.8014231 c 0,1.381543 -1.624733,2.5015049 -3.628943,2.5015049 -0.71891,0 -1.421621,-0.1471898 -2.018993,-0.4228981" transform="matrix(-0.53138406,-0.63327886,0.91870036,-0.77088109,-39.10129,991.67111)" style="fill:none;stroke:#000;stroke-width:1.00431406;stroke-linecap:round;stroke-miterlimit:4;stroke-opacity:1;stroke-dasharray:none"/></g></g></svg>