<svg xmlns="http://www.w3.org/2000/svg" xmlns:svg="http://www.w3.org/2000/svg" xmlns:xlink="http://www.w3.org/1999/xlink" id="svg2" width="60" height="40" version="1.1" style="display:inline"><defs id="defs4"><linearGradient id="linearGradient5445"><stop style="stop-color:#80a4c4;stop-opacity:1" id="stop5447" offset="0"/><stop id="stop5453" offset=".312" style="stop-color:#fff;stop-opacity:.68627451"/><stop style="stop-color:#80a4c4;stop-opacity:1" id="stop5449" offset="1"/></linearGradient><linearGradient id="linearGradient5451" x1="50" x2="50" y1="1012.362" y2="1052.362" gradientTransform="matrix(0.59309343,0,0,0.98766919,0.34532731,12.729805)" gradientUnits="userSpaceOnUse" xlink:href="#linearGradient5445"/></defs><metadata id="metadata7"/><g id="layer1" transform="translate(0,-1012.3622)" style="display:inline"><rect style="fill:url(#linearGradient5451);fill-opacity:1;stroke:#000;stroke-width:.9873997;stroke-linejoin:round;stroke-miterlimit:4;stroke-opacity:1;stroke-dasharray:none" id="rect4923" width="59.013" height="39.013" x=".494" y="1012.856" rx="4.95" ry="4.924"/><path style="fill:#000;fill-opacity:1;stroke:#000;stroke-width:.89626366px;stroke-linecap:butt;stroke-linejoin:miter;stroke-opacity:1" id="path3623" d="m 5.8707509,1035.926 6.6655351,-9.7763 6.652487,9.7464 -13.3180221,0.03 0,-10e-5 z"/><path id="path3687" d="m 5.8707509,1046.9379 6.6655351,-9.7763 6.652487,9.7464 -13.3180221,0.03 0,-1e-4 z" style="fill:#000;fill-opacity:1;stroke:#000;stroke-width:.89626366px;stroke-linecap:butt;stroke-linejoin:miter;stroke-opacity:1"/><path id="path3689" d="m 54.12925,1036.864 -6.665535,9.7763 -6.652487,-9.7464 13.318022,-0.03 0,10e-5 z" style="fill:#000;fill-opacity:1;stroke:#000;stroke-width:.89626366px;stroke-linecap:butt;stroke-linejoin:miter;stroke-opacity:1"/><path style="fill:#000;fill-opacity:1;stroke:#000;stroke-width:.89626366px;stroke-linecap:butt;stroke-linejoin:miter;stroke-opacity:1" id="path3691" d="m 54.12925,1025.8521 -6.665535,9.7763 -6.652487,-9.7464 13.318022,-0.03 0,10e-5 z"/><path style="fill:#000;fill-opacity:1;stroke:#000;stroke-opacity:1" id="path3693" d="m 30.238095,18.154762 c 0,2.531305 -2.065353,4.583334 -4.613095,4.583334 -2.547742,0 -4.613095,-2.052029 -4.613095,-4.583334 0,-2.531305 2.065353,-4.583333 4.613095,-4.583333 2.547742,0 4.613095,2.052028 4.613095,4.583333 z" transform="matrix(0.97349799,0,0,0.97981954,5.0094661,1004.6483)"/><path id="path3695" d="m 30.238095,18.154762 c 0,2.531305 -2.065353,4.583334 -4.613095,4.583334 -2.547742,0 -4.613095,-2.052029 -4.613095,-4.583334 0,-2.531305 2.065353,-4.583333 4.613095,-4.583333 2.547742,0 4.613095,2.052028 4.613095,4.583333 z" transform="matrix(0.97349799,0,0,0.97981954,4.9797042,1014.559)" style="fill:#000;fill-opacity:1;stroke:#000;stroke-opacity:1"/></g></svg>