<svg xmlns="http://www.w3.org/2000/svg" xmlns:svg="http://www.w3.org/2000/svg" xmlns:xlink="http://www.w3.org/1999/xlink" id="svg2" width="40" height="16" version="1.1" style="display:inline"><defs id="defs4"><linearGradient id="linearGradient3638"><stop id="stop3640" offset="0" style="stop-color:#80a4c4;stop-opacity:1"/><stop style="stop-color:#fff;stop-opacity:1" id="stop3642" offset=".18"/><stop id="stop3646" offset=".499" style="stop-color:#fff;stop-opacity:1"/><stop id="stop3644" offset="1" style="stop-color:#80a4c4;stop-opacity:1"/></linearGradient><linearGradient id="linearGradient3636" x1="50.003" x2="50.003" y1="1012.422" y2="1052.36" gradientUnits="userSpaceOnUse" xlink:href="#linearGradient3638"/></defs><metadata id="metadata7"/><g id="layer1" transform="translate(0,-1036.3622)" style="display:inline"><rect style="fill:#000;fill-opacity:1;stroke:#000;stroke-width:.75058466;stroke-miterlimit:4;stroke-opacity:1;stroke-dasharray:none" id="rect9640" width="39.249" height="15.249" x=".375" y="1036.737" rx="5" ry="5"/><path style="fill:#fff;fill-opacity:1;stroke:none" id="path3404" d="m 1.2135796,1047.3622 2.6837744,0 -1.3271411,-6 z"/><path id="path4174" d="m 9.9358465,1047.3622 2.6837745,0 -1.327141,-6 z" style="fill:#fff;fill-opacity:1;stroke:none"/><path id="path4721" d="m 5.574713,1047.3622 2.6837745,0 -1.3271411,-6 z" style="fill:#fff;fill-opacity:1;stroke:none"/><path style="fill:#fff;fill-opacity:1;stroke:none" id="path4723" d="m 14.29698,1047.3622 2.683774,0 -1.327141,-6 z"/><path id="path4744" d="m 23.019247,1047.3622 2.683774,0 -1.327141,-6 z" style="fill:#fff;fill-opacity:1;stroke:none"/><path style="fill:#fff;fill-opacity:1;stroke:none" id="path4746" d="m 27.38038,1047.3622 2.683775,0 -1.327141,-6 z"/><path id="path4767" d="m 31.741514,1047.3622 2.683774,0 -1.327141,-6 z" style="fill:#fff;fill-opacity:1;stroke:none"/><path style="fill:#fff;fill-opacity:1;stroke:none" id="path4769" d="m 36.102647,1047.3622 2.683775,0 -1.327142,-6 z"/></g></svg>