<svg xmlns="http://www.w3.org/2000/svg" xmlns:svg="http://www.w3.org/2000/svg" xmlns:xlink="http://www.w3.org/1999/xlink" id="svg2" width="50" height="32" version="1.1" style="display:inline"><defs id="defs4"><linearGradient id="linearGradient3638"><stop id="stop3640" offset="0" style="stop-color:#80a4c4;stop-opacity:1"/><stop style="stop-color:#fff;stop-opacity:1" id="stop3642" offset=".18"/><stop id="stop3646" offset=".499" style="stop-color:#fff;stop-opacity:1"/><stop id="stop3644" offset="1" style="stop-color:#80a4c4;stop-opacity:1"/></linearGradient><linearGradient id="linearGradient3606"><stop style="stop-color:#80a4c4;stop-opacity:1" id="stop3608" offset="0"/><stop id="stop3614" offset=".317" style="stop-color:#fff;stop-opacity:1"/><stop style="stop-color:#80a4c4;stop-opacity:1" id="stop3610" offset="1"/></linearGradient><linearGradient id="linearGradient3612" x1="50.003" x2="50.003" y1="1012.422" y2="1052.36" gradientTransform="matrix(0.49261999,0,0,0.78641747,0.36774548,224.47224)" gradientUnits="userSpaceOnUse" xlink:href="#linearGradient3606"/><linearGradient id="linearGradient3636" x1="50.003" x2="50.003" y1="1012.422" y2="1052.36" gradientUnits="userSpaceOnUse" xlink:href="#linearGradient3638"/></defs><metadata id="metadata7"/><g id="layer1" transform="translate(0,-1020.3622)" style="display:inline"><rect id="rect3618" width="49.017" height="31.017" x=".491" y="1020.854" rx="4.933" ry="4.895" style="fill:url(#linearGradient3612);fill-opacity:1;stroke:#000;stroke-width:.98272729;stroke-linejoin:round;stroke-miterlimit:4;stroke-opacity:1;stroke-dasharray:none;display:inline"/><path style="fill:#000;fill-opacity:1;stroke:none" id="path3731" d="m 17.738095,12 c 0,2.761424 -2.278551,5 -5.089286,5 -2.8107345,0 -5.0892854,-2.238576 -5.0892854,-5 0,-2.7614237 2.2785509,-5 5.0892854,-5 2.810735,0 5.089286,2.2385763 5.089286,5 z" transform="matrix(1.1789473,0,0,1.2,10.08772,1015.9622)"/><path id="path3733" d="m 17.738095,12 c 0,2.761424 -2.278551,5 -5.089286,5 -2.8107345,0 -5.0892854,-2.238576 -5.0892854,-5 0,-2.7614237 2.2785509,-5 5.0892854,-5 2.810735,0 5.089286,2.2385763 5.089286,5 z" transform="matrix(1.1789473,0,0,1.2,10.08772,1027.9622)" style="fill:#000;fill-opacity:1;stroke:none"/></g></svg>