<svg xmlns="http://www.w3.org/2000/svg" xmlns:svg="http://www.w3.org/2000/svg" xmlns:xlink="http://www.w3.org/1999/xlink" id="svg2" width="25" height="25" version="1.1" style="display:inline"><defs id="defs4"><linearGradient id="linearGradient3638"><stop id="stop3640" offset="0" style="stop-color:#80a4c4;stop-opacity:1"/><stop style="stop-color:#fff;stop-opacity:1" id="stop3642" offset=".18"/><stop id="stop3646" offset=".499" style="stop-color:#fff;stop-opacity:1"/><stop id="stop3644" offset="1" style="stop-color:#80a4c4;stop-opacity:1"/></linearGradient><linearGradient id="linearGradient3606"><stop style="stop-color:#80a4c4;stop-opacity:1" id="stop3608" offset="0"/><stop id="stop3614" offset=".317" style="stop-color:#fff;stop-opacity:1"/><stop style="stop-color:#80a4c4;stop-opacity:1" id="stop3610" offset="1"/></linearGradient><linearGradient id="linearGradient3612" x1="50.003" x2="50.003" y1="1012.422" y2="1052.36" gradientTransform="matrix(0.24143403,0,0,0.60909518,0.42768319,411.03817)" gradientUnits="userSpaceOnUse" xlink:href="#linearGradient3606"/><linearGradient id="linearGradient3636" x1="50.003" x2="50.003" y1="1012.422" y2="1052.36" gradientUnits="userSpaceOnUse" xlink:href="#linearGradient3638"/></defs><metadata id="metadata7"/><g id="layer1" transform="translate(0,-1027.3622)" style="display:inline"><rect id="rect3618" width="24.023" height="24.023" x=".488" y="1027.851" rx="4.886" ry="4.886" style="fill:url(#linearGradient3612);fill-opacity:1;stroke:#000;stroke-width:.97700012;stroke-linejoin:round;stroke-miterlimit:4;stroke-opacity:1;stroke-dasharray:none;display:inline"/><path style="fill:none;stroke:#f0f;stroke-width:.48899069;stroke-miterlimit:4;stroke-opacity:1;stroke-dasharray:none" id="path7473" d="m -17.929086,-3.4610479 a 3.3273304,4.0422935 0 1 1 -6.654661,0 3.3273304,4.0422935 0 1 1 6.654661,0 z" transform="matrix(1.1270297,0,0,0.92769117,30.126488,1036.5887)"/><path id="path7475" d="m -17.929086,-3.4610479 a 3.3273304,4.0422935 0 1 1 -6.654661,0 3.3273304,4.0422935 0 1 1 6.654661,0 z" transform="matrix(1.1270297,0,0,0.92769117,42.775843,1049.2381)" style="fill:none;stroke:#f0f;stroke-width:.48899069;stroke-miterlimit:4;stroke-opacity:1;stroke-dasharray:none"/><path style="fill:none;stroke:#000;stroke-width:.80000001;stroke-linecap:butt;stroke-linejoin:miter;stroke-miterlimit:4;stroke-opacity:1;stroke-dasharray:1.60000002,1.60000002;stroke-dashoffset:0" id="path7477" d="m 6.2696802,1033.5532 12.9243408,12.8143"/></g></svg>