<svg xmlns="http://www.w3.org/2000/svg" xmlns:svg="http://www.w3.org/2000/svg" xmlns:xlink="http://www.w3.org/1999/xlink" id="svg2" width="30" height="32" version="1.1" style="display:inline"><defs id="defs4"><linearGradient id="linearGradient3638"><stop id="stop3640" offset="0" style="stop-color:#80a4c4;stop-opacity:1"/><stop style="stop-color:#fff;stop-opacity:1" id="stop3642" offset=".18"/><stop id="stop3646" offset=".499" style="stop-color:#fff;stop-opacity:1"/><stop id="stop3644" offset="1" style="stop-color:#80a4c4;stop-opacity:1"/></linearGradient><linearGradient id="linearGradient3606"><stop style="stop-color:#80a4c4;stop-opacity:1" id="stop3608" offset="0"/><stop id="stop3614" offset=".317" style="stop-color:#fff;stop-opacity:1"/><stop style="stop-color:#80a4c4;stop-opacity:1" id="stop3610" offset="1"/></linearGradient><linearGradient id="linearGradient3612" x1="50.003" x2="50.003" y1="1012.422" y2="1052.36" gradientTransform="matrix(0.29168742,0,0,0.78658389,0.41488488,224.30038)" gradientUnits="userSpaceOnUse" xlink:href="#linearGradient3606"/><linearGradient id="linearGradient3636" x1="50.003" x2="50.003" y1="1012.422" y2="1052.36" gradientUnits="userSpaceOnUse" xlink:href="#linearGradient3638"/></defs><metadata id="metadata7"/><g id="layer1" transform="translate(0,-1020.3622)" style="display:inline"><rect id="rect3618" width="29.024" height="31.024" x=".488" y="1020.85" rx="4.877" ry="4.885" style="fill:url(#linearGradient3612);fill-opacity:1;stroke:#000;stroke-width:.97616196;stroke-linejoin:round;stroke-miterlimit:4;stroke-opacity:1;stroke-dasharray:none;display:inline"/><g style="display:inline" id="layer1-9" transform="matrix(0.2,0,0,0.2,-14.943084,1015.5914)"><path id="path2520" d="m 141.45124,110.98459 c -1.70454,1.6489 -2.9247,3.83867 -3.47801,6.22378 l -41.906442,-0.022 0.0289,5.63426 41.833532,0.044 c 1.28732,5.53295 6.25526,9.7442 12.17824,9.74421 5.92495,0 10.89294,-4.20848 12.17824,-9.74421 l 41.75945,-0.0312 -0.044,-5.63426 -41.73746,0.009 c -0.58668,-2.52896 -1.82216,-4.51083 -3.68811,-6.19717 l -1.52406,-1.27363 -1.8821,-1.21102 -2.30232,-0.71488 -2.90982,-0.29604 -2.86401,0.2853 -2.17355,0.6878 -1.91144,1.18458 -1.55709,1.31128 z m 8.65625,1.62424 c 4.14,0 7.5,3.36 7.5,7.5 0,4.14 -3.36,7.5 -7.5,7.5 -4.14,0 -7.5,-3.36 -7.5,-7.5 0,-4.14 3.36,-7.5 7.5,-7.5 z" style="fill:#000407;fill-opacity:1;fill-rule:evenodd;stroke:none;display:inline"/><path id="path2864" d="m 138.21654,77.27517 23.9441,0 5.82689,16.563385 -35.95865,0.0214 6.18766,-16.584765 0,-4e-5 z" style="fill:none;stroke:#000;stroke-width:4.23707008;stroke-linecap:butt;stroke-linejoin:miter;stroke-miterlimit:4;stroke-opacity:1;stroke-dasharray:none"/><path id="path3652" d="m 113.83449,119.99336 -11.78669,-35.00824 15.95726,8.997725 64.12315,0.0364 15.8844,-9.034175 -11.96262,35.00826" style="fill:none;stroke:#000;stroke-width:4;stroke-linecap:butt;stroke-linejoin:miter;stroke-miterlimit:4;stroke-opacity:1;stroke-dasharray:none"/></g></g></svg>