<svg xmlns="http://www.w3.org/2000/svg" xmlns:svg="http://www.w3.org/2000/svg" xmlns:xlink="http://www.w3.org/1999/xlink" id="svg2" width="30" height="32" version="1.1" style="display:inline"><defs id="defs4"><linearGradient id="linearGradient3638"><stop id="stop3640" offset="0" style="stop-color:#80a4c4;stop-opacity:1"/><stop style="stop-color:#fff;stop-opacity:1" id="stop3642" offset=".18"/><stop id="stop3646" offset=".499" style="stop-color:#fff;stop-opacity:1"/><stop id="stop3644" offset="1" style="stop-color:#80a4c4;stop-opacity:1"/></linearGradient><linearGradient id="linearGradient3606"><stop style="stop-color:#80a4c4;stop-opacity:1" id="stop3608" offset="0"/><stop id="stop3614" offset=".317" style="stop-color:#fff;stop-opacity:1"/><stop style="stop-color:#80a4c4;stop-opacity:1" id="stop3610" offset="1"/></linearGradient><linearGradient id="linearGradient3612" x1="50.003" x2="50.003" y1="1012.422" y2="1052.36" gradientTransform="matrix(0.29168745,0,0,0.78658389,0.4148849,224.30038)" gradientUnits="userSpaceOnUse" xlink:href="#linearGradient3606"/><linearGradient id="linearGradient3636" x1="50.003" x2="50.003" y1="1012.422" y2="1052.36" gradientUnits="userSpaceOnUse" xlink:href="#linearGradient3638"/></defs><metadata id="metadata7"/><g id="layer1" transform="translate(0,-1020.3622)" style="display:inline"><rect id="rect3618" width="29.024" height="31.024" x=".488" y="1020.85" rx="4.877" ry="4.885" style="fill:url(#linearGradient3612);fill-opacity:1;stroke:#000;stroke-width:.9761619;stroke-linejoin:round;stroke-miterlimit:4;stroke-opacity:1;stroke-dasharray:none;display:inline"/><g style="display:inline" id="layer1-2" transform="matrix(0.2,0,0,0.2,-15.055419,1005.1792)"><g id="g4222" transform="translate(-0.00768486,10.417855)"><path id="path12984" d="m 112.55523,201.14815 15.07284,-44.31585 -37.029509,-26.58059 45.174689,0 14.43114,-43.712767 13.81157,43.712767 45.79434,0 -37.00746,27.20601 13.81157,43.69043 -36.41002,-27.20601 -37.64916,27.20601 z m 49.87794,-51.08603 c 0,6.9047 -5.55289,12.5085 -12.39484,12.5085 -6.84195,0 -12.39484,-5.6038 -12.39484,-12.5085 0,-6.90469 5.55289,-12.50851 12.39484,-12.50851 6.84195,0 12.39484,5.60382 12.39484,12.50851 z" style="fill:#000407;fill-opacity:1;fill-rule:evenodd;stroke:none"/></g></g></g></svg>