<svg xmlns="http://www.w3.org/2000/svg" xmlns:svg="http://www.w3.org/2000/svg" xmlns:xlink="http://www.w3.org/1999/xlink" id="svg2" width="60" height="40" version="1.1" style="display:inline"><defs id="defs4"><linearGradient id="linearGradient4892"><stop style="stop-color:#80a4c4;stop-opacity:1" id="stop4894" offset="0"/><stop id="stop4902" offset=".312" style="stop-color:#fff;stop-opacity:1"/><stop style="stop-color:#80a4c4;stop-opacity:1" id="stop4896" offset="1"/></linearGradient><linearGradient id="linearGradient4900" x1="50" x2="50" y1="1012.362" y2="1052.362" gradientTransform="matrix(0.59309517,0,0,0.98767692,0.34523459,12.721869)" gradientUnits="userSpaceOnUse" xlink:href="#linearGradient4892"/></defs><metadata id="metadata7"/><g id="layer1" transform="translate(0,-1012.3622)" style="display:inline"><rect style="fill:url(#linearGradient4900);fill-opacity:1;stroke:#000;stroke-width:.9874047;stroke-linejoin:round;stroke-miterlimit:4;stroke-opacity:1;stroke-dasharray:none" id="rect4370" width="59.013" height="39.013" x=".494" y="1012.856" rx="4.95" ry="4.924"/><g style="display:inline" id="layer1-9" transform="matrix(0.24,0,0,0.24,-5.9369293,995.96112)"><g id="g4222" transform="translate(-0.00768486,10.417855)"><path id="path12984" d="m 112.55523,201.14815 15.07284,-44.31585 -37.029509,-26.58059 45.174689,0 14.43114,-43.712767 13.81157,43.712767 45.79434,0 -37.00746,27.20601 13.81157,43.69043 -36.41002,-27.20601 -37.64916,27.20601 z m 49.87794,-51.08603 c 0,6.9047 -5.55289,12.5085 -12.39484,12.5085 -6.84195,0 -12.39484,-5.6038 -12.39484,-12.5085 0,-6.90469 5.55289,-12.50851 12.39484,-12.50851 6.84195,0 12.39484,5.60382 12.39484,12.50851 z" style="fill:#000407;fill-opacity:1;fill-rule:evenodd;stroke:none"/></g></g><path style="fill:none;stroke:#d40000;stroke-width:1.76196635;stroke-miterlimit:4;stroke-opacity:1;stroke-dasharray:none" id="path5621" d="m 5.1814965,31.127108 c 0.7396451,-4.958864 3.69536,-9.442424 8.1979955,-12.43564" transform="matrix(1.0723689,0,0,1.2014911,2.3755149,994.01712)"/><path id="path6133" d="m 38.210829,18.601908 c 4.567507,2.985326 7.574378,7.496041 8.329355,12.495165" transform="matrix(1.0723689,0,0,1.2014911,2.3755149,994.07664)" style="fill:none;stroke:#00d400;stroke-width:1.76196635;stroke-miterlimit:4;stroke-opacity:1;stroke-dasharray:none"/><path style="fill:none;stroke:#000;stroke-width:.5;stroke-linecap:butt;stroke-linejoin:miter;stroke-miterlimit:4;stroke-opacity:1;stroke-dasharray:1,.5;stroke-dashoffset:0" id="path6137" d="m 8.8602865,1031.5255 21.1904765,2.9465 -12.767857,-17.2322"/><path style="fill:none;stroke:#000;stroke-width:.5;stroke-linecap:butt;stroke-linejoin:miter;stroke-miterlimit:4;stroke-opacity:1;stroke-dasharray:1,.5;stroke-dashoffset:0" id="path6139" d="m 42.788858,1017.2101 -12.708333,17.2619 21.220238,-2.8869"/><g style="display:inline" id="g3334" transform="matrix(0.2,0,0,0.2,-19.941643,1002.3384)"><path id="path3336" d="m 212.96393,160.41557 c 0,41.08342 -31.5225,74.3881 -70.40747,74.3881 -38.88497,0 -70.407473,-33.30468 -70.407473,-74.3881 0,-41.08341 31.522503,-74.388097 70.407473,-74.388097 38.88497,0 70.40747,33.304687 70.40747,74.388097 z" transform="matrix(0.27955695,0,0,0.2645974,110.15275,157.587)" style="fill:none;stroke:#000;stroke-width:7.35363483;stroke-miterlimit:4;stroke-opacity:1;stroke-dasharray:none"/><path style="fill:#000;fill-opacity:1;stroke:#000;stroke-width:1;stroke-miterlimit:4;stroke-opacity:1;stroke-dasharray:none" id="path3338" d="m 152.44047,200.3869 c 0,1.16703 -0.94606,2.1131 -2.11309,2.1131 -1.16703,0 -2.1131,-0.94607 -2.1131,-2.1131 0,-1.16703 0.94607,-2.11309 2.1131,-2.11309 1.16703,0 2.11309,0.94606 2.11309,2.11309 z" transform="matrix(0.9567198,0,0,0.9567198,6.1550085,8.3096874)"/></g><g id="g8976" transform="matrix(0.064,0,0,0.064,40.413693,1033.9064)" style="stroke-width:7.8125;stroke-miterlimit:4;stroke-dasharray:none"><g id="layer1-4" transform="translate(0,80)" style="stroke-width:7.8125;stroke-miterlimit:4;stroke-dasharray:none"><g id="Chimney" transform="translate(5.9245283,-79.916101)" style="stroke-width:7.8125;stroke-miterlimit:4;stroke-dasharray:none;display:inline"><circle style="fill:none;stroke:#000;stroke-width:7.8125;stroke-miterlimit:4;stroke-dasharray:none" id="circle3177" cx="144" cy="200.001" r="12.5" d="m 156.5,200.00101 c 0,6.90356 -5.59644,12.5 -12.5,12.5 -6.90356,0 -12.5,-5.59644 -12.5,-12.5 0,-6.90356 5.59644,-12.5 12.5,-12.5 6.90356,0 12.5,5.59644 12.5,12.5 z" class="st8"/><path style="fill:none;stroke:#000;stroke-width:7.8125;stroke-miterlimit:4;stroke-dasharray:none" id="path3179" d="m 154.016,65.573 c 2.085,-4.296 10.428,-6.448 10.428,-10.744" class="st8"/><path style="fill:none;stroke:#000;stroke-width:7.8125;stroke-miterlimit:4;stroke-dasharray:none" id="path3181" d="m 134.229,65.083 c -3.558,-17.769 23.098,-33.759 30.214,-21.32" class="st8"/><path style="fill:none;stroke:#000;stroke-width:7.8125;stroke-miterlimit:4;stroke-dasharray:none" id="path3183" d="M 154.891,68.51" class="st8"/><path style="fill:none;stroke:#000;stroke-width:7.8125;stroke-miterlimit:4;stroke-dasharray:none" id="path3185" d="M 132.891,68.51" class="st8"/><polyline style="fill:none;stroke:#000;stroke-width:7.8125;stroke-miterlimit:4;stroke-dasharray:none" id="polyline3187" points="119 200 134 71 154 71 169 200" class="st8"/><path style="fill:none;stroke:#000;stroke-width:7.8125;stroke-miterlimit:4;stroke-dasharray:none" id="path3189" d="m 159.934,39.938 c 41.957,-41.761 82.291,64.239 -0.461,20.63" class="st8"/><line style="fill:none;stroke:#000;stroke-width:7.8125;stroke-miterlimit:4;stroke-dasharray:none" id="line3191" x1="156.5" x2="181.5" y1="200.001" y2="200.001" class="st8"/><line style="fill:none;stroke:#000;stroke-width:7.8125;stroke-miterlimit:4;stroke-dasharray:none" id="line3193" x1="106.5" x2="131.5" y1="200.001" y2="200.001" class="st8"/></g></g></g></g></svg>