<svg xmlns="http://www.w3.org/2000/svg" xmlns:svg="http://www.w3.org/2000/svg" xmlns:xlink="http://www.w3.org/1999/xlink" id="svg2" width="30" height="32" version="1.1" style="display:inline"><defs id="defs4"><linearGradient id="linearGradient3638"><stop id="stop3640" offset="0" style="stop-color:#80a4c4;stop-opacity:1"/><stop style="stop-color:#fff;stop-opacity:1" id="stop3642" offset=".18"/><stop id="stop3646" offset=".499" style="stop-color:#fff;stop-opacity:1"/><stop id="stop3644" offset="1" style="stop-color:#80a4c4;stop-opacity:1"/></linearGradient><linearGradient id="linearGradient3606"><stop style="stop-color:#80a4c4;stop-opacity:1" id="stop3608" offset="0"/><stop id="stop3614" offset=".317" style="stop-color:#fff;stop-opacity:1"/><stop style="stop-color:#80a4c4;stop-opacity:1" id="stop3610" offset="1"/></linearGradient><linearGradient id="linearGradient3612" x1="50.003" x2="50.003" y1="1012.422" y2="1052.36" gradientTransform="matrix(0.29168745,0,0,0.78658387,0.41488489,224.30043)" gradientUnits="userSpaceOnUse" xlink:href="#linearGradient3606"/><linearGradient id="linearGradient3636" x1="50.003" x2="50.003" y1="1012.422" y2="1052.36" gradientUnits="userSpaceOnUse" xlink:href="#linearGradient3638"/></defs><metadata id="metadata7"/><g id="layer1" transform="translate(0,-1020.3622)" style="display:inline"><rect id="rect3618" width="29.024" height="31.024" x=".488" y="1020.85" rx="4.877" ry="4.885" style="fill:url(#linearGradient3612);fill-opacity:1;stroke:#000;stroke-width:.9761619;stroke-linejoin:round;stroke-miterlimit:4;stroke-opacity:1;stroke-dasharray:none;display:inline"/><g id="g4102" transform="matrix(1.6551564,0,0,1.6551569,-58.452634,-731.19888)"><g style="display:inline" id="layer9" transform="matrix(0.2,0,0,0.2,32.370953,1055.9186)"><g id="layer1-2" transform="translate(-290.00001,-472.36216)"><g id="g3736" transform="matrix(0.84290293,0,0,0.84291694,54.983976,83.625076)"><path id="path20078" d="m 319.30618,565.58014 -0.0197,0 c -0.10944,-9.8e-4 -0.21765,-0.009 -0.32587,-0.0233 -0.10821,-0.0148 -0.21519,-0.0369 -0.32094,-0.0664 -0.10575,-0.027 -0.20904,-0.0628 -0.30988,-0.10452 -0.10083,-0.0418 -0.19797,-0.091 -0.29143,-0.14756 -0.0946,-0.0541 -0.18568,-0.11435 -0.27299,-0.18198 -0.0861,-0.0664 -0.16723,-0.13773 -0.2447,-0.21642 -0.0775,-0.0762 -0.15002,-0.1574 -0.21642,-0.2447 -0.0664,-0.0861 -0.12666,-0.17708 -0.18076,-0.27176 -0.0553,-0.0934 -0.10453,-0.19182 -0.14634,-0.29266 -0.043,-0.10083 -0.0774,-0.20412 -0.10575,-0.30864 -0.0307,-0.10575 -0.0529,-0.21273 -0.0677,-0.32094 -0.016,-0.10821 -0.0234,-0.21642 -0.0221,-0.32586 l 0,-61.42621 c 0,-0.10943 0.009,-0.21887 0.0234,-0.32585 0.0135,-0.10821 0.0356,-0.21519 0.0664,-0.32094 0.0271,-0.10575 0.0615,-0.20905 0.10452,-0.30988 0.0418,-0.10083 0.091,-0.19797 0.14757,-0.29143 0.0541,-0.0946 0.11435,-0.18567 0.18076,-0.27298 0.0664,-0.0861 0.13895,-0.16723 0.21642,-0.2447 0.0775,-0.0774 0.15863,-0.15002 0.2447,-0.21642 0.0874,-0.0664 0.17831,-0.12665 0.27299,-0.18199 0.0935,-0.0541 0.19183,-0.10329 0.29143,-0.1451 0.10084,-0.043 0.20413,-0.0774 0.30988,-0.10575 0.10575,-0.0307 0.21273,-0.0529 0.32094,-0.0677 0.10822,-0.016 0.21643,-0.0234 0.32587,-0.0221 l 61.427,0 c 0.10944,0 0.21766,0.009 0.32587,0.0221 0.10821,0.0148 0.21519,0.0369 0.32094,0.0677 0.10575,0.0271 0.20904,0.0615 0.30988,0.10452 0.10083,0.0418 0.19797,0.091 0.29266,0.14633 0.0935,0.0553 0.18445,0.11559 0.27053,0.18199 0.0874,0.0664 0.16846,0.13895 0.24593,0.21642 0.0775,0.0775 0.15002,0.15862 0.21642,0.2447 0.0664,0.0874 0.12666,0.1783 0.18077,0.27298 0.0566,0.0935 0.10452,0.1906 0.14633,0.29143 0.0418,0.10083 0.0774,0.20535 0.10575,0.30988 0.0295,0.10575 0.0529,0.21273 0.0677,0.32094 0.016,0.10698 0.0234,0.21642 0.0221,0.32585 l 0,61.42621 c 0,0.10944 -0.007,0.21765 -0.0221,0.32586 -0.0148,0.10821 -0.0381,0.21519 -0.0677,0.32094 -0.027,0.10452 -0.0615,0.20904 -0.10452,0.30987 -0.0418,0.0996 -0.091,0.19798 -0.14756,0.29143 -0.0541,0.0947 -0.11436,0.18568 -0.18077,0.27176 -0.0664,0.0874 -0.13895,0.16846 -0.21642,0.2447 -0.0775,0.0787 -0.15863,0.15124 -0.24593,0.21765 -0.0861,0.0664 -0.17708,0.12665 -0.27053,0.18075 -0.0946,0.0553 -0.19183,0.10453 -0.29266,0.14633 -0.10084,0.0418 -0.20413,0.0775 -0.30988,0.10575 -0.10575,0.0295 -0.21273,0.0528 -0.32094,0.0676 -0.10821,0.016 -0.21643,0.0221 -0.32587,0.0221 l -0.0197,0 -61.38766,0 z" style="fill:#e72512;fill-opacity:1;fill-rule:evenodd;stroke:none"/><path id="path20082" d="m 318.79875,567.75031 62.435,0 c 0.18125,-10e-4 0.3625,-0.0137 0.54125,-0.0375 0.17875,-0.025 0.35625,-0.0612 0.53125,-0.11125 0.175,-0.045 0.3475,-0.10375 0.51375,-0.17375 0.16625,-0.07 0.32875,-0.15125 0.48375,-0.24375 0.1575,-0.09 0.30875,-0.19125 0.45125,-0.30125 0.14375,-0.11 0.28,-0.23 0.4075,-0.35875 0.12875,-0.1275 0.24875,-0.2625 0.35875,-0.40625 0.11,-0.14375 0.21125,-0.29375 0.30125,-0.45125 0.0913,-0.15625 0.1725,-0.31875 0.24125,-0.485 0.0712,-0.1675 0.12875,-0.33875 0.17625,-0.51375 0.0487,-0.17375 0.0863,-0.3525 0.1125,-0.53125 0.025,-0.17875 0.0375,-0.36 0.0362,-0.54 l 0,-62.46875 c -10e-4,-0.18125 -0.0138,-0.36125 -0.0387,-0.54 -0.0238,-0.18 -0.0613,-0.3575 -0.11,-0.5325 -0.045,-0.175 -0.10375,-0.34625 -0.17375,-0.51375 -0.07,-0.16625 -0.1525,-0.32875 -0.24375,-0.48375 -0.0913,-0.1575 -0.19125,-0.3075 -0.30125,-0.45125 -0.11,-0.14375 -0.23,-0.27875 -0.35875,-0.40625 -0.1275,-0.12875 -0.26375,-0.24875 -0.4075,-0.36 -0.1425,-0.11 -0.29375,-0.21 -0.45125,-0.3 -0.155,-0.0913 -0.3175,-0.1725 -0.48375,-0.2425 -0.1675,-0.07 -0.33875,-0.12875 -0.51375,-0.175 -0.175,-0.05 -0.3525,-0.0875 -0.53125,-0.1125 -0.17875,-0.025 -0.36,-0.0375 -0.54125,-0.0362 l -62.4675,0 c -0.18125,0 -0.36125,0.0138 -0.54125,0.0375 -0.18,0.0238 -0.3575,0.0613 -0.53125,0.11125 -0.175,0.045 -0.3475,0.1025 -0.51375,0.1725 -0.1675,0.0713 -0.32875,0.1525 -0.485,0.245 -0.15625,0.09 -0.3075,0.19 -0.45,0.3 -0.14375,0.11125 -0.28,0.23125 -0.4075,0.36 -0.12875,0.1275 -0.24875,0.2625 -0.35875,0.40625 -0.11,0.14375 -0.21125,0.29375 -0.30125,0.45125 -0.0913,0.15625 -0.1725,0.3175 -0.2425,0.485 -0.07,0.16625 -0.12875,0.33875 -0.175,0.5125 -0.05,0.175 -0.0875,0.3525 -0.1125,0.5325 -0.025,0.17875 -0.0375,0.35875 -0.0362,0.54 l 0,62.46875 c 10e-4,0.18 0.0138,0.36125 0.0387,0.54 0.0238,0.18 0.06,0.3575 0.11,0.53125 0.045,0.175 0.10375,0.3475 0.17375,0.51375 0.07,0.1675 0.15125,0.32875 0.24375,0.485 0.09,0.15625 0.19125,0.3075 0.30125,0.45125 0.11,0.14375 0.23,0.27875 0.35875,0.40625 0.1275,0.12875 0.26375,0.24875 0.4075,0.35875 0.1425,0.11 0.29375,0.21125 0.45,0.30125 0.15625,0.0912 0.31875,0.1725 0.485,0.2425 0.1675,0.07 0.33875,0.12875 0.51375,0.175 0.175,0.05 0.3525,0.0875 0.53125,0.1125 0.18,0.025 0.36,0.0375 0.54125,0.0362 l 0.0325,0 z" style="fill:none;stroke:#231f20;stroke-width:.81563282;stroke-linecap:butt;stroke-linejoin:bevel;stroke-miterlimit:22.9260006;stroke-opacity:1;stroke-dasharray:none"/><path id="path20090" d="m 366.4675,556.56281 -40.09,-40.09 0,40.09 40.09,0" style="fill:#fff;fill-opacity:1;fill-rule:evenodd;stroke:none"/><path id="path20094" d="m 373.62125,549.40781 0,-40.09 -40.09,0 40.09,40.09" style="fill:#fff;fill-opacity:1;fill-rule:evenodd;stroke:none"/></g></g></g></g></g></svg>