<svg xmlns="http://www.w3.org/2000/svg" xmlns:svg="http://www.w3.org/2000/svg" xmlns:xlink="http://www.w3.org/1999/xlink" id="svg2" width="32" height="32" version="1.1" style="display:inline"><defs id="defs4"><linearGradient id="linearGradient3638"><stop id="stop3640" offset="0" style="stop-color:#80a4c4;stop-opacity:1"/><stop style="stop-color:#fff;stop-opacity:1" id="stop3642" offset=".18"/><stop id="stop3646" offset=".499" style="stop-color:#fff;stop-opacity:1"/><stop id="stop3644" offset="1" style="stop-color:#80a4c4;stop-opacity:1"/></linearGradient><linearGradient id="linearGradient3606"><stop style="stop-color:#80a4c4;stop-opacity:1" id="stop3608" offset="0"/><stop id="stop3614" offset=".317" style="stop-color:#fff;stop-opacity:1"/><stop style="stop-color:#80a4c4;stop-opacity:1" id="stop3610" offset="1"/></linearGradient><linearGradient id="linearGradient3612" x1="50.003" x2="50.003" y1="1012.422" y2="1052.36" gradientTransform="matrix(0.31177734,0,0,0.78655888,0.41033864,224.32632)" gradientUnits="userSpaceOnUse" xlink:href="#linearGradient3606"/><linearGradient id="linearGradient3636" x1="50.003" x2="50.003" y1="1012.422" y2="1052.36" gradientUnits="userSpaceOnUse" xlink:href="#linearGradient3638"/></defs><metadata id="metadata7"/><g id="layer1" transform="translate(0,-1020.3622)" style="display:inline"><rect id="rect3618" width="31.023" height="31.023" x=".489" y="1020.851" rx="4.886" ry="4.886" style="fill:url(#linearGradient3612);fill-opacity:1;stroke:#000;stroke-width:.97715217;stroke-linejoin:round;stroke-miterlimit:4;stroke-opacity:1;stroke-dasharray:none;display:inline"/><g style="display:inline" id="layer14" transform="matrix(0.1,0,0,0.1,1.1142321,1016.748)"><path id="path2986" d="m 212.96393,160.41557 c 0,41.08342 -31.5225,74.3881 -70.40747,74.3881 -38.88497,0 -70.407473,-33.30468 -70.407473,-74.3881 0,-41.08341 31.522503,-74.388097 70.407473,-74.388097 38.88497,0 70.40747,33.304687 70.40747,74.388097 z" transform="matrix(1.763198,0,0,1.6688464,-101.35527,-67.708953)" style="fill:none;stroke:#d400d4;stroke-width:2.33185363;stroke-miterlimit:4;stroke-opacity:1;stroke-dasharray:none"/></g><g style="display:inline" id="layer17" transform="matrix(0.2,0,0,0.2,-14.054179,1007.508)"><g id="g7748" transform="translate(0.05952381,-39.345238)"><path style="fill:none;stroke:#000;stroke-width:2;stroke-linecap:butt;stroke-linejoin:miter;stroke-miterlimit:4;stroke-opacity:1;stroke-dasharray:none" id="path3787" d="m 150.04103,166.53393 0,10.03982"/><path style="fill:none;stroke:#000;stroke-width:2;stroke-linecap:butt;stroke-linejoin:miter;stroke-miterlimit:4;stroke-opacity:1;stroke-dasharray:none" id="path3789" d="m 166.8272,171.24582 -5.01778,8.68105"/><path style="fill:none;stroke:#000;stroke-width:2;stroke-linecap:butt;stroke-linejoin:miter;stroke-miterlimit:4;stroke-opacity:1;stroke-dasharray:none" id="path3791" d="m 178.67793,182.72115 -8.64654,5.01632"/><path style="fill:none;stroke:#000;stroke-width:2;stroke-linecap:butt;stroke-linejoin:miter;stroke-miterlimit:4;stroke-opacity:1;stroke-dasharray:none" id="path3793" d="m 133.11149,171.19531 4.99815,8.65704"/><path style="fill:none;stroke:#000;stroke-width:2;stroke-linecap:butt;stroke-linejoin:miter;stroke-miterlimit:4;stroke-opacity:1;stroke-dasharray:none" id="path3795" d="m 121.21137,183.15288 8.65706,4.99814"/><path style="fill:none;stroke:#000;stroke-width:.98458081;stroke-miterlimit:4;stroke-opacity:1;stroke-dasharray:none" id="path3799" d="m 138.73321,198.99316 c 3.70074,-4.9345 12.19814,-6.7517 18.97947,-4.05882 2.31546,0.91947 4.22645,2.29661 5.51242,3.97249" transform="matrix(1.7327773,0,0,2.3813021,-111.67,-285.52145)"/></g></g></g></svg>