<svg xmlns="http://www.w3.org/2000/svg" xmlns:svg="http://www.w3.org/2000/svg" xmlns:xlink="http://www.w3.org/1999/xlink" id="svg2" width="25" height="25" version="1.1" style="display:inline"><defs id="defs4"><linearGradient id="linearGradient3638"><stop id="stop3640" offset="0" style="stop-color:#80a4c4;stop-opacity:1"/><stop style="stop-color:#fff;stop-opacity:1" id="stop3642" offset=".18"/><stop id="stop3646" offset=".499" style="stop-color:#fff;stop-opacity:1"/><stop id="stop3644" offset="1" style="stop-color:#80a4c4;stop-opacity:1"/></linearGradient><linearGradient id="linearGradient3606"><stop style="stop-color:#80a4c4;stop-opacity:1" id="stop3608" offset="0"/><stop id="stop3614" offset=".317" style="stop-color:#fff;stop-opacity:1"/><stop style="stop-color:#80a4c4;stop-opacity:1" id="stop3610" offset="1"/></linearGradient><linearGradient id="linearGradient3612" x1="50.003" x2="50.003" y1="1012.422" y2="1052.36" gradientTransform="matrix(0.24143403,0,0,0.60909518,0.42768319,411.03817)" gradientUnits="userSpaceOnUse" xlink:href="#linearGradient3606"/><linearGradient id="linearGradient3636" x1="50.003" x2="50.003" y1="1012.422" y2="1052.36" gradientUnits="userSpaceOnUse" xlink:href="#linearGradient3638"/></defs><metadata id="metadata7"/><g id="layer1" transform="translate(0,-1027.3622)" style="display:inline"><rect id="rect3618" width="24.023" height="24.023" x=".488" y="1027.851" rx="4.886" ry="4.886" style="fill:url(#linearGradient3612);fill-opacity:1;stroke:#000;stroke-width:.97700012;stroke-linejoin:round;stroke-miterlimit:4;stroke-opacity:1;stroke-dasharray:none;display:inline"/><path style="fill:none;stroke:#0f0;stroke-width:5.07546282000000026;stroke-miterlimit:4;stroke-opacity:1;stroke-dasharray:none" id="path5437" d="M 2.4432734,5.0447691 A 4.0216699,4.8613591 0 0 1 1.1410871,6.6143263" transform="matrix(0.86648293,0,0,0.71681771,2.4934586,1027.1089)"/><path style="fill:none;stroke:#0f0;stroke-width:5.85131884000000024;stroke-miterlimit:4;stroke-opacity:1;stroke-dasharray:none" id="path5439" d="M 3.3084628,8.0665708 A 5.4137864,8.0654364 0 0 1 1.6387436,10.550131" transform="matrix(2.5031728,0,0,1.6802121,4.7109076,1022.4346)"/><path style="fill:none;stroke:#0f0;stroke-width:.51180190000000003;stroke-miterlimit:4;stroke-opacity:1;stroke-dasharray:none" id="path5441" d="m -4.5622885,0.8538612 a 2.519068,3.8669903 0 0 1 -0.7187121,1.112665" transform="matrix(9.6833267,0,0,6.3079957,66.224481,1036.6541)"/></g></svg>