<svg xmlns="http://www.w3.org/2000/svg" xmlns:svg="http://www.w3.org/2000/svg" xmlns:xlink="http://www.w3.org/1999/xlink" id="svg2" width="30" height="30" version="1.1" style="display:inline"><defs id="defs4"><linearGradient id="linearGradient4910"><stop style="stop-color:#fff;stop-opacity:1" id="stop4912" offset="0"/><stop style="stop-color:#80a4c4;stop-opacity:1" id="stop4914" offset="1"/></linearGradient><linearGradient id="linearGradient3638"><stop id="stop3640" offset="0" style="stop-color:#80a4c4;stop-opacity:1"/><stop style="stop-color:#fff;stop-opacity:1" id="stop3642" offset=".18"/><stop id="stop3646" offset=".499" style="stop-color:#fff;stop-opacity:1"/><stop id="stop3644" offset="1" style="stop-color:#80a4c4;stop-opacity:1"/></linearGradient><linearGradient id="linearGradient3606"><stop style="stop-color:#80a4c4;stop-opacity:1" id="stop3608" offset="0"/><stop id="stop3614" offset=".317" style="stop-color:#fff;stop-opacity:1"/><stop style="stop-color:#80a4c4;stop-opacity:1" id="stop3610" offset="1"/></linearGradient><linearGradient id="linearGradient3612" x1="50.003" x2="50.003" y1="1012.422" y2="1052.36" gradientTransform="matrix(0.29912563,0,0,0.75464081,0.04295641,258.27815)" gradientUnits="userSpaceOnUse" xlink:href="#linearGradient3606"/><linearGradient id="linearGradient3636" x1="50.003" x2="50.003" y1="1012.422" y2="1052.36" gradientUnits="userSpaceOnUse" xlink:href="#linearGradient3638"/><radialGradient id="radialGradient4916" cx="14.96" cy="9.689" r="15.476" fx="14.96" fy="9.689" gradientTransform="matrix(1,0,0,1.0042834,0,-0.06432913)" gradientUnits="userSpaceOnUse" xlink:href="#linearGradient4910"/></defs><metadata id="metadata7"/><g id="layer1" transform="translate(0,-1022.3622)" style="display:inline"><path style="fill:url(#radialGradient4916);stroke:#000;stroke-opacity:1;stroke-width:1.03285581000000004;stroke-miterlimit:4;stroke-dasharray:none;fill-opacity:1" id="path4136" d="m 29.919456,15.018175 c 0,8.298641 -6.697698,15.026019 -14.959728,15.026019 C 6.6976985,30.044194 0,23.316816 0,15.018175 0,6.7195339 6.6976985,-0.00784397 14.959728,-0.00784397 c 8.26203,0 14.959728,6.72737787 14.959728,15.02601897 z" transform="matrix(0.97033215,0,0,0.9660513,0.48409468,1022.8539)"/><text style="font-size:10px;font-style:normal;font-variant:normal;font-weight:700;font-stretch:normal;text-align:start;line-height:125%;writing-mode:lr-tb;text-anchor:start;fill:#000;fill-opacity:1;stroke:none;font-family:Bitstream Vera Sans;-inkscape-font-specification:Bitstream Vera Sans Bold" id="text4918" x="11.093" y="1032.342" xml:space="preserve"><tspan id="tspan4920" x="11.093" y="1032.342">C</tspan></text><g id="g5147" transform="translate(-1.1225098,-0.05870873)"><rect id="rect3456" width="8.021" height="10.021" x="6.09" y="1033.918" style="fill:none;stroke:#000;stroke-width:.97859073;stroke-opacity:1"/><rect id="rect5137" width="7.5" height=".25" x="6.344" y="1038.768" style="fill:#000;fill-opacity:1;stroke:none"/></g><g id="g5153" transform="translate(-0.04419388,-0.08838837)"><path id="path3458" d="m 15.917269,1043.9896 5.123931,-10.1665 4.898626,10.1665 -10.022557,0 z" style="fill:none;stroke:#000;stroke-width:.87779164px;stroke-linecap:butt;stroke-linejoin:miter;stroke-opacity:1"/><rect id="rect5139" width="5.625" height=".25" x="18.188" y="1039.8" style="fill:#000;fill-opacity:1;stroke:none"/></g><path style="fill:#d40000;fill-opacity:1;stroke:none" id="path5157" d="m 5.4956283,1036.5463 0,-2.1563 3.5000002,0 3.4999995,0 0,2.1563 0,2.1562 -3.4999995,0 -3.5000002,0 0,-2.1562 z"/><path style="fill:#fff;fill-opacity:1;stroke:none" id="path5159" d="m 5.4956283,1041.2025 0,-2.1875 3.5000002,0 3.4999995,0 0,2.1875 0,2.1875 -3.4999995,0 -3.5000002,0 0,-2.1875 z"/><path style="fill:#fff;fill-opacity:1;stroke:none" id="path5161" d="m 16.644006,1043.4064 c 0.0089,-0.027 0.403379,-0.812 0.876518,-1.7449 l 0.860252,-1.6961 2.557083,0.01 2.557083,0.01 0.595813,1.2374 c 0.327697,0.6806 0.701987,1.4612 0.831755,1.7346 l 0.235943,0.4972 -4.265356,0 c -3.092132,0 -4.260883,-0.013 -4.249091,-0.049 z"/><path style="fill:#00d400;fill-opacity:1;stroke:none" id="path5163" d="m 18.535455,1039.6694 c 0,-0.023 2.419302,-4.8268 2.449755,-4.8641 0.0045,-0.01 0.492583,0.9989 1.08473,2.2319 0.592147,1.2329 1.123327,2.3361 1.1804,2.4516 l 0.103769,0.2099 -2.409327,0 c -1.325129,0 -2.409327,-0.013 -2.409327,-0.029 z"/></g></svg>