<svg xmlns="http://www.w3.org/2000/svg" xmlns:svg="http://www.w3.org/2000/svg" xmlns:xlink="http://www.w3.org/1999/xlink" id="svg2" width="50" height="32" version="1.1" style="display:inline"><defs id="defs4"><linearGradient id="linearGradient3638"><stop id="stop3640" offset="0" style="stop-color:#80a4c4;stop-opacity:1"/><stop style="stop-color:#fff;stop-opacity:1" id="stop3642" offset=".18"/><stop id="stop3646" offset=".499" style="stop-color:#fff;stop-opacity:1"/><stop id="stop3644" offset="1" style="stop-color:#80a4c4;stop-opacity:1"/></linearGradient><linearGradient id="linearGradient3606"><stop style="stop-color:#80a4c4;stop-opacity:1" id="stop3608" offset="0"/><stop id="stop3614" offset=".317" style="stop-color:#fff;stop-opacity:1"/><stop style="stop-color:#80a4c4;stop-opacity:1" id="stop3610" offset="1"/></linearGradient><linearGradient id="linearGradient3612" x1="50.003" x2="50.003" y1="1012.422" y2="1052.36" gradientTransform="matrix(0.49251421,0,0,0.80352693,0.37303504,206.46592)" gradientUnits="userSpaceOnUse" xlink:href="#linearGradient3606"/><linearGradient id="linearGradient3636" x1="50.003" x2="50.003" y1="1012.422" y2="1052.36" gradientUnits="userSpaceOnUse" xlink:href="#linearGradient3638"/><linearGradient id="linearGradient10516" x1="50.003" x2="50.003" y1="1012.422" y2="1052.36" gradientTransform="matrix(0.49262,0,0,0.78641747,0.36774549,224.47224)" gradientUnits="userSpaceOnUse" xlink:href="#linearGradient3606"/></defs><metadata id="metadata7"/><g id="layer1" transform="translate(0,-1020.3622)" style="display:inline"><rect id="rect3618" width="49.017" height="31.017" x=".491" y="1020.854" rx="4.933" ry="4.895" style="fill:url(#linearGradient10516);fill-opacity:1;stroke:#000;stroke-width:.98272729;stroke-linejoin:round;stroke-miterlimit:4;stroke-opacity:1;stroke-dasharray:none;display:inline"/><g id="g3742" transform="matrix(0.4,0,0,0.4,-36.667702,963.10996)" style="display:inline"><g id="g3752"><g id="g3744"><path style="fill:none;stroke:#000;stroke-width:5.79977846;stroke-miterlimit:4;stroke-opacity:1;stroke-dasharray:none" id="path3746" d="m 129.32694,154.256 c -6.43031,-11.47162 -2.0237,-25.81069 9.84245,-32.02721 11.86614,-6.21652 26.69836,-1.95641 33.12867,9.51521 3.96093,7.06626 3.93423,15.59456 -0.0709,22.63752" transform="matrix(1.1867088,0,0,1.2275216,-24.073718,10.69257)"/><path id="path3748" d="m 115.96555,137.16671 0,5.61206 21.95352,0.0442 c 1.28732,5.53295 6.23327,9.65624 12.15625,9.65625 5.92495,0 10.87095,-4.12052 12.15625,-9.65625 l 29.84375,0 0,-0.0625 0,-5.59375 -76.10977,0 z m 46.26602,0 c -1.2853,-5.53573 -6.2313,-9.65625 -12.15625,-9.65625 -5.92298,1e-5 -10.86893,4.1233 -12.15625,9.65625 l 24.3125,0 z m -12.15625,-4.6875 c 4.14,0 7.5,3.36 7.5,7.5 0,4.14 -3.36,7.5 -7.5,7.5 -4.14,0 -7.5,-3.36 -7.5,-7.5 0,-4.14 3.36,-7.5 7.5,-7.5 z" transform="translate(0,60)" style="fill:#000407;fill-opacity:1;fill-rule:evenodd;stroke:none;display:inline"/></g><rect style="fill:none;stroke:#000;stroke-width:1;stroke-miterlimit:4;stroke-opacity:1;stroke-dasharray:none" id="rect3750" width=".707" height="31.997" x="205.145" y="98.715" transform="matrix(0.94832365,0.31730466,-0.31730466,0.94832365,0,0)"/></g><path id="path6136" d="m 162.23354,197.04158 c -0.0138,-0.043 -0.0712,-0.24687 -0.12759,-0.45312 -0.36018,-1.3168 -1.06931,-2.78712 -1.88955,-3.91786 -1.28214,-1.76746 -3.15864,-3.29584 -5.03046,-4.09722 -0.28447,-0.12179 -0.52726,-0.22982 -0.53954,-0.24008 -0.0123,-0.0103 1.94086,-5.88605 4.34029,-13.05734 4.34898,-12.99802 4.36307,-13.03858 4.51607,-13.00018 0.84984,0.2133 3.24298,1.36157 4.72846,2.2688 6.35138,3.879 10.72841,10.50458 11.83767,17.91888 0.20064,1.34107 0.26755,2.29912 0.26628,3.8125 -0.003,3.54841 -0.6576,6.70804 -2.08795,10.07812 l -0.32495,0.76563 -7.83186,0 c -6.21049,0 -7.83704,-0.0162 -7.85687,-0.0781 z" style="fill:#d40000;fill-opacity:1;stroke:#000;stroke-width:.0625;stroke-opacity:1"/><path id="path6138" d="m 131.69204,196.69844 c -0.91765,-2.03256 -1.57153,-4.19407 -1.92397,-6.35998 -0.2636,-1.61996 -0.28449,-1.91465 -0.28568,-4.03125 -0.001,-2.12722 0.0288,-2.56178 0.28649,-4.15625 1.09498,-6.77433 4.92751,-12.87418 10.54363,-16.78125 5.36899,-3.73515 11.837,-5.27161 18.26246,-4.33822 1.0047,0.14594 2.81658,0.53607 2.98917,0.64361 0.0646,0.0403 -0.8782,2.92458 -4.27441,13.07626 -2.39653,7.16353 -4.36371,13.03259 -4.3715,13.04235 -0.008,0.01 -0.15067,-0.0128 -0.31751,-0.0502 -0.64095,-0.14364 -1.70832,-0.24877 -2.52575,-0.24877 -4.45866,0 -8.52271,2.32877 -10.79808,6.1875 -0.52034,0.88243 -1.09117,2.26791 -1.31327,3.1875 l -0.0528,0.21875 -3.014,0.0162 -3.01401,0.0162 -0.19074,-0.42247 0,0 z" style="fill:#fff;fill-opacity:1;stroke:#000;stroke-width:.0625;stroke-opacity:1"/></g></g></svg>