<svg xmlns="http://www.w3.org/2000/svg" xmlns:svg="http://www.w3.org/2000/svg" xmlns:xlink="http://www.w3.org/1999/xlink" id="svg2" width="30" height="30" version="1.1" style="display:inline"><defs id="defs4"><linearGradient id="linearGradient4910"><stop style="stop-color:#fff;stop-opacity:1" id="stop4912" offset="0"/><stop style="stop-color:#80a4c4;stop-opacity:1" id="stop4914" offset="1"/></linearGradient><linearGradient id="linearGradient3638"><stop id="stop3640" offset="0" style="stop-color:#80a4c4;stop-opacity:1"/><stop style="stop-color:#fff;stop-opacity:1" id="stop3642" offset=".18"/><stop id="stop3646" offset=".499" style="stop-color:#fff;stop-opacity:1"/><stop id="stop3644" offset="1" style="stop-color:#80a4c4;stop-opacity:1"/></linearGradient><linearGradient id="linearGradient3606"><stop style="stop-color:#80a4c4;stop-opacity:1" id="stop3608" offset="0"/><stop id="stop3614" offset=".317" style="stop-color:#fff;stop-opacity:1"/><stop style="stop-color:#80a4c4;stop-opacity:1" id="stop3610" offset="1"/></linearGradient><linearGradient id="linearGradient3612" x1="50.003" x2="50.003" y1="1012.422" y2="1052.36" gradientTransform="matrix(0.29912563,0,0,0.75464081,0.04295641,258.27815)" gradientUnits="userSpaceOnUse" xlink:href="#linearGradient3606"/><linearGradient id="linearGradient3636" x1="50.003" x2="50.003" y1="1012.422" y2="1052.36" gradientUnits="userSpaceOnUse" xlink:href="#linearGradient3638"/><radialGradient id="radialGradient4916" cx="14.96" cy="9.689" r="15.476" fx="14.96" fy="9.689" gradientTransform="matrix(1,0,0,1.0042834,0,-0.06432913)" gradientUnits="userSpaceOnUse" xlink:href="#linearGradient4910"/></defs><metadata id="metadata7"/><g id="layer1" transform="translate(0,-1022.3622)" style="display:inline"><path style="fill:url(#radialGradient4916);stroke:#000;stroke-opacity:1;stroke-width:1.03285581000000004;stroke-miterlimit:4;stroke-dasharray:none;fill-opacity:1" id="path4136" d="m 29.919456,15.018175 c 0,8.298641 -6.697698,15.026019 -14.959728,15.026019 C 6.6976985,30.044194 0,23.316816 0,15.018175 0,6.7195339 6.6976985,-0.00784397 14.959728,-0.00784397 c 8.26203,0 14.959728,6.72737787 14.959728,15.02601897 z" transform="matrix(0.97033215,0,0,0.9660513,0.48409468,1022.8539)"/><g style="display:inline" id="layer13" transform="matrix(0.2,0,0,0.2,-22.97474,1001.9489)"><g style="fill:#000;fill-opacity:1" id="g4470" transform="translate(-0.01107886,9.9809195)"><g style="fill:#000;fill-opacity:1" id="g3843" transform="translate(-0.48310445,0.27747085)"><path style="fill:#000;fill-opacity:1;stroke:none" id="path10972" d="m 134.51873,171.50128 6.0126,-18.4125 -15.9375,-11.33751 19.4875,-0.37499 6.3749,-18.4125 6.025,18.4125 19.4875,0.37499 -15.5874,11.33751 6.0249,18.4125 -15.95,-11.325 -15.9375,11.325 z"/></g></g></g><path style="fill:none;stroke:red;stroke-width:.53024846;stroke-miterlimit:4;stroke-opacity:1;stroke-dasharray:none" id="path4474" d="m 23.559297,18.290927 a 5.126524,4.9497476 0 0 1 -0.172266,2.773687" transform="matrix(3.706215,0,0,3.8385796,-61.769731,959.93556)"/><path id="path4478" d="m 23.386272,21.066654 a 5.126524,4.9497476 0 0 1 -1.84319,2.35328" transform="matrix(3.706215,0,0,3.8385796,-61.769731,959.93556)" style="fill:none;stroke:#00d400;stroke-width:.53024846;stroke-miterlimit:4;stroke-opacity:1;stroke-dasharray:none"/><path style="fill:none;stroke:#000;stroke-width:.5;stroke-linecap:butt;stroke-linejoin:miter;stroke-opacity:1;stroke-miterlimit:4;stroke-dasharray:1,1;stroke-dashoffset:0" id="path5250" d="M 24.571961,8.0354956 7.115262,11.615224 23.909048,18.023379" transform="translate(0,1022.3622)"/><path style="fill:none;stroke:#000;stroke-width:.5;stroke-linecap:butt;stroke-linejoin:miter;stroke-opacity:1;stroke-miterlimit:4;stroke-dasharray:1,1;stroke-dashoffset:0" id="path5252" d="M 6.9826795,11.615224 17.456699,26.685437" transform="translate(0,1022.3622)"/></g></svg>