<svg xmlns="http://www.w3.org/2000/svg" xmlns:svg="http://www.w3.org/2000/svg" xmlns:xlink="http://www.w3.org/1999/xlink" id="svg2" width="60" height="40" version="1.1" style="display:inline"><defs id="defs4"><linearGradient id="linearGradient4179"><stop style="stop-color:#80a4c4;stop-opacity:1" id="stop4181" offset="0"/><stop id="stop4187" offset=".313" style="stop-color:#fff;stop-opacity:.68627451"/><stop style="stop-color:#80a4c4;stop-opacity:1" id="stop4183" offset="1"/></linearGradient><linearGradient id="linearGradient4185" x1="50" x2="50" y1="1012.362" y2="1052.362" gradientTransform="matrix(0.59311065,0,0,0.98774228,0.34446445,12.654511)" gradientUnits="userSpaceOnUse" xlink:href="#linearGradient4179"/></defs><metadata id="metadata7"/><g id="layer1" transform="translate(0,-1012.3622)" style="display:inline"><rect style="fill:url(#linearGradient4185);fill-opacity:1;stroke:#000;stroke-width:.98744649;stroke-linejoin:round;stroke-miterlimit:4;stroke-opacity:1;stroke-dasharray:none;display:inline" id="rect3667" width="59.013" height="39.013" x=".494" y="1012.856" rx="4.95" ry="4.925"/><path style="fill:#ffd400;fill-opacity:1;stroke:#000;stroke-width:.80000001px;stroke-linecap:butt;stroke-linejoin:miter;stroke-opacity:1" id="path6150" d="m 15.938432,1023.9193 8.518953,8.519 -8.552625,8.4852 5.75787,5.6232 8.350594,-8.4853 8.552625,8.4853 5.656855,-5.6568 -8.485284,-8.5527 8.518951,-8.4516 -5.690527,-5.6905 -8.552624,8.5526 -8.451605,-8.519 -5.623183,5.6906 z"/><rect style="fill:#ffd400;fill-opacity:1;stroke:#000;stroke-width:.5;stroke-miterlimit:4;stroke-opacity:1;stroke-dasharray:none;stroke-dashoffset:0" id="rect6662" width="6.964" height="7.976" x="7.083" y="1028.434"/><path style="fill:#ffd400;fill-opacity:1;stroke:#000;stroke-width:.5;stroke-linecap:butt;stroke-linejoin:miter;stroke-miterlimit:4;stroke-opacity:1;stroke-dasharray:none" id="path6664" d="m 53.035714,1036.4098 -7.97619,-0.059 4.047619,-7.9762 3.928571,8.0357 z"/><path id="path6666" d="m 27.371187,1045.7401 1.70379,1.7038 -1.710525,1.697 1.151574,1.1247 1.670119,-1.6971 1.710525,1.6971 1.131371,-1.1314 -1.697057,-1.7105 1.703791,-1.6904 -1.138106,-1.1381 -1.710525,1.7106 -1.690321,-1.7038 -1.124636,1.1381 z" style="fill:#d40000;fill-opacity:1;stroke:#000;stroke-width:.16px;stroke-linecap:butt;stroke-linejoin:miter;stroke-opacity:1"/><path style="fill:none;stroke:#000;stroke-width:.5;stroke-linecap:butt;stroke-linejoin:miter;stroke-miterlimit:4;stroke-opacity:1;stroke-dasharray:none" id="path6668" d="m 30.059524,1022.4217 -3.988095,-4.0476 3.988095,-3.9881 3.928571,4.0476 -3.928571,3.9881 z"/></g></svg>