<svg xmlns="http://www.w3.org/2000/svg" xmlns:svg="http://www.w3.org/2000/svg" xmlns:xlink="http://www.w3.org/1999/xlink" id="svg2" width="25" height="25" version="1.1" style="display:inline"><defs id="defs4"><linearGradient id="linearGradient3638"><stop id="stop3640" offset="0" style="stop-color:#80a4c4;stop-opacity:1"/><stop style="stop-color:#fff;stop-opacity:1" id="stop3642" offset=".18"/><stop id="stop3646" offset=".499" style="stop-color:#fff;stop-opacity:1"/><stop id="stop3644" offset="1" style="stop-color:#80a4c4;stop-opacity:1"/></linearGradient><linearGradient id="linearGradient3606"><stop style="stop-color:#80a4c4;stop-opacity:1" id="stop3608" offset="0"/><stop id="stop3614" offset=".317" style="stop-color:#fff;stop-opacity:1"/><stop style="stop-color:#80a4c4;stop-opacity:1" id="stop3610" offset="1"/></linearGradient><linearGradient id="linearGradient3612" x1="50.003" x2="50.003" y1="1012.422" y2="1052.36" gradientTransform="matrix(0.24129247,0,0,0.60873805,0.43476243,411.40674)" gradientUnits="userSpaceOnUse" xlink:href="#linearGradient3606"/><linearGradient id="linearGradient3636" x1="50.003" x2="50.003" y1="1012.422" y2="1052.36" gradientUnits="userSpaceOnUse" xlink:href="#linearGradient3638"/></defs><metadata id="metadata7"/><g id="layer1" transform="translate(0,-1027.3622)" style="display:inline"><rect id="rect3618" width="24.009" height="24.009" x=".495" y="1027.858" rx="5" ry="5" style="fill:url(#linearGradient3612);fill-opacity:1;stroke:#000;stroke-width:.99062473;stroke-linejoin:round;stroke-miterlimit:4;stroke-opacity:1;stroke-dasharray:none;display:inline"/><g id="g3666" transform="matrix(0.3,0,0,0.3,-32.538435,1029.0027)" style="display:inline"><path id="path27763" d="m 164.46095,19.345067 c 0,8.004 -6.47999,14.45602 -14.48399,14.45602 -8.004,0 -14.45381,-6.527099 -14.45381,-14.531099 0,-8.004 6.39203,-14.5000008 14.39603,-14.5000008 8.004,0 14.54177,6.5710798 14.54177,14.5750798 z m 0.0184,28.924917 c 0,8.004004 -6.496,14.500004 -14.5,14.500004 -8.004,0 -14.5,-6.496 -14.5,-14.500004 0,-8.004 6.496,-14.5 14.5,-14.5 8.004,0 14.5,6.496 14.5,14.5 z" style="fill:#000407;fill-opacity:1;fill-rule:evenodd;stroke:none;display:inline"/><g id="g2912" transform="matrix(1,0,0,0.74930505,-10.064217,10.656361)" style="display:inline"><path style="fill:#000407;fill-opacity:1;fill-rule:evenodd;stroke:none" id="path2914" d="m 157.875,68.625 0,7.709475 4.25,0 0,-7.709475 -4.25,0 z"/></g></g></g></svg>