<svg xmlns="http://www.w3.org/2000/svg" xmlns:svg="http://www.w3.org/2000/svg" xmlns:xlink="http://www.w3.org/1999/xlink" id="svg2" width="50" height="32" version="1.1" style="display:inline"><defs id="defs4"><linearGradient id="linearGradient3638"><stop id="stop3640" offset="0" style="stop-color:#80a4c4;stop-opacity:1"/><stop style="stop-color:#fff;stop-opacity:1" id="stop3642" offset=".18"/><stop id="stop3646" offset=".499" style="stop-color:#fff;stop-opacity:1"/><stop id="stop3644" offset="1" style="stop-color:#80a4c4;stop-opacity:1"/></linearGradient><linearGradient id="linearGradient3606"><stop style="stop-color:#80a4c4;stop-opacity:1" id="stop3608" offset="0"/><stop id="stop3614" offset=".317" style="stop-color:#fff;stop-opacity:1"/><stop style="stop-color:#80a4c4;stop-opacity:1" id="stop3610" offset="1"/></linearGradient><linearGradient id="linearGradient3612" x1="50.003" x2="50.003" y1="1012.422" y2="1052.36" gradientTransform="matrix(0.49262,0,0,0.78641747,0.36774549,224.47224)" gradientUnits="userSpaceOnUse" xlink:href="#linearGradient3606"/><linearGradient id="linearGradient3636" x1="50.003" x2="50.003" y1="1012.422" y2="1052.36" gradientUnits="userSpaceOnUse" xlink:href="#linearGradient3638"/></defs><metadata id="metadata7"/><g id="layer1" transform="translate(0,-1020.3622)" style="display:inline"><rect id="rect3618" width="49.017" height="31.017" x=".491" y="1020.854" rx="4.933" ry="4.895" style="fill:url(#linearGradient3612);fill-opacity:1;stroke:#000;stroke-width:.98272729;stroke-linejoin:round;stroke-miterlimit:4;stroke-opacity:1;stroke-dasharray:none;display:inline"/><g id="g3653" transform="matrix(0.4,0,0,0.4,-35.061383,986.93644)" style="display:inline"><g id="g3678"><path id="path3655" d="m 108.23157,137.16671 0,5.65625 29.6875,0 c 1.28732,5.53295 6.23327,9.65624 12.15625,9.65625 5.92495,0 10.87095,-4.12052 12.15625,-9.65625 l 29.84375,0 0,-0.0625 0,-5.59375 -83.84375,0 z m 54,0 c -1.2853,-5.53573 -6.2313,-9.65625 -12.15625,-9.65625 -5.92298,1e-5 -10.86893,4.1233 -12.15625,9.65625 l 24.3125,0 z m -12.15625,-4.6875 c 4.14,0 7.5,3.36 7.5,7.5 0,4.14 -3.36,7.5 -7.5,7.5 -4.14,0 -7.5,-3.36 -7.5,-7.5 0,-4.14 3.36,-7.5 7.5,-7.5 z" style="fill:#000407;fill-opacity:1;fill-rule:evenodd;stroke:none"/><path style="fill:none;stroke:#000;stroke-width:4.64683294;stroke-miterlimit:4;stroke-opacity:1;stroke-dasharray:none;display:inline" id="path3649" d="m 15.635753,156.98217 c -3.114542,-15.3273 5.88908,-30.53085 20.984529,-35.43455" transform="matrix(1.4164674,0.47394337,-0.48206808,1.4407496,172.65842,-93.634291)"/><path style="fill:none;stroke:#000;stroke-width:3.59378028;stroke-miterlimit:4;stroke-opacity:1;stroke-dasharray:none;display:inline" id="path3651" d="m 110.53956,99.547479 c 7.81904,2.710721 13.70924,9.319411 15.58437,17.485361" transform="matrix(1.8607362,0.62259362,-0.61353771,1.8336709,19.201188,-153.26853)"/></g><path id="path6674" d="m 123.24968,196.95735 c 0,-0.0806 0.27384,-1.14582 0.60854,-2.36703 2.86668,-10.45969 9.27626,-19.26664 18.30656,-25.15377 6.02729,-3.92937 12.37122,-6.0733 20.35428,-6.87874 l 0.99723,-0.10061 1.71218,1.6204 c 8.30262,7.85759 13.23843,19.10617 13.4058,30.55152 l 0.0349,2.38649 -8.16113,0.0459 -8.16113,0.046 -0.30173,-0.92984 c -0.81943,-2.52529 -2.80031,-5.13489 -5.03868,-6.63791 -5.6791,-3.81343 -13.40367,-2.2805 -17.36975,3.44698 -0.5736,0.82835 -1.70928,3.35371 -1.71245,3.8079 -0.002,0.28962 -0.47018,0.30936 -7.33839,0.30936 -4.03493,0 -7.33623,-0.066 -7.33623,-0.14665 z" transform="translate(0,-60)" style="fill:#00d400;fill-opacity:1;stroke:#000;stroke-width:.17677669;stroke-miterlimit:4;stroke-opacity:1;stroke-dasharray:none"/></g></g></svg>