<svg xmlns="http://www.w3.org/2000/svg" xmlns:svg="http://www.w3.org/2000/svg" id="svg2" width="24" height="24" version="1.0"><g id="layer1"><path id="path3154" d="M 1.1364216,0.89276048 L 11.402097,8.4689046 L 17.235728,20.085659 L 23.422912,23.431789" style="fill:none;fill-rule:evenodd;stroke:red;stroke-width:1px;stroke-linecap:round;stroke-linejoin:miter;stroke-opacity:1"/><path id="path3168" d="M 18.24588,6.0697923 A 0.063134536,0.063134536 0 1 1 18.11961,6.0697923 A 0.063134536,0.063134536 0 1 1 18.24588,6.0697923 z" transform="matrix(34.999999,0,0,34.999999,-625.37277,-203.94857)" style="opacity:1;fill:red;fill-opacity:1;fill-rule:nonzero;stroke:none;stroke-width:5;stroke-linecap:butt;stroke-linejoin:miter;marker:none;marker-start:none;marker-mid:none;marker-end:none;stroke-miterlimit:4;stroke-dasharray:none;stroke-dashoffset:0;stroke-opacity:1;visibility:visible;display:inline;overflow:visible;enable-background:accumulate"/><path id="path3170" d="M 18.24588,6.0697923 A 0.063134536,0.063134536 0 1 1 18.11961,6.0697923 A 0.063134536,0.063134536 0 1 1 18.24588,6.0697923 z" transform="matrix(34.999999,0,0,34.999999,-619.53913,-192.73587)" style="opacity:1;fill:red;fill-opacity:1;fill-rule:nonzero;stroke:none;stroke-width:5;stroke-linecap:butt;stroke-linejoin:miter;marker:none;marker-start:none;marker-mid:none;marker-end:none;stroke-miterlimit:4;stroke-dasharray:none;stroke-dashoffset:0;stroke-opacity:1;visibility:visible;display:inline;overflow:visible;enable-background:accumulate"/><path id="path3174" d="M 11.338963,8.4689046 L 7.323606,18.696699" style="fill:none;fill-rule:evenodd;stroke:red;stroke-width:1px;stroke-linecap:butt;stroke-linejoin:miter;stroke-opacity:1"/><path id="path3172" d="M 3.9459087,0.92432786 L 19.57802,8.0459033 L 6.8879779,18.601998 L 1.7993341,21.506186" style="fill:none;fill-rule:evenodd;stroke:green;stroke-width:1px;stroke-linecap:round;stroke-linejoin:miter;stroke-opacity:1"/><path id="path3164" d="M 18.24588,6.0697923 A 0.063134536,0.063134536 0 1 1 18.11961,6.0697923 A 0.063134536,0.063134536 0 1 1 18.24588,6.0697923 z" transform="matrix(34.999999,0,0,34.999999,-617.00113,-204.40314)" style="opacity:1;fill:green;fill-opacity:1;fill-rule:nonzero;stroke:none;stroke-width:5;stroke-linecap:butt;stroke-linejoin:miter;marker:none;marker-start:none;marker-mid:none;marker-end:none;stroke-miterlimit:4;stroke-dasharray:none;stroke-dashoffset:0;stroke-opacity:1;visibility:visible;display:inline;overflow:visible;enable-background:accumulate"/><path id="path3166" d="M 18.24588,6.0697923 A 0.063134536,0.063134536 0 1 1 18.11961,6.0697923 A 0.063134536,0.063134536 0 1 1 18.24588,6.0697923 z" transform="matrix(34.999999,0,0,34.999999,-629.32499,-193.80916)" style="opacity:1;fill:green;fill-opacity:1;fill-rule:nonzero;stroke:none;stroke-width:5;stroke-linecap:butt;stroke-linejoin:miter;marker:none;marker-start:none;marker-mid:none;marker-end:none;stroke-miterlimit:4;stroke-dasharray:none;stroke-dashoffset:0;stroke-opacity:1;visibility:visible;display:inline;overflow:visible;enable-background:accumulate"/></g></svg>