<svg xmlns="http://www.w3.org/2000/svg" xmlns:svg="http://www.w3.org/2000/svg" id="svg2" width="24" height="24" version="1.0"><defs id="defs4"><filter id="filter3278"><feGaussianBlur id="feGaussianBlur3280" stdDeviation=".289"/></filter></defs><g id="layer1"><g id="g2483" transform="translate(-27.484835,-5.7569321)" style="filter:url(#filter3278)"><path id="path2469" d="M 28.919255,7.0429857 L 39.184931,14.61913 L 45.018562,26.235884 L 50.643246,29.269514" style="fill:none;fill-rule:evenodd;stroke:#000;stroke-width:1px;stroke-linecap:round;stroke-linejoin:miter;stroke-opacity:1"/><path id="path2471" d="M 18.24588,6.0697923 A 0.063134536,0.063134536 0 1 1 18.11961,6.0697923 A 0.063134536,0.063134536 0 1 1 18.24588,6.0697923 z" transform="matrix(34.999999,0,0,34.999999,-597.58994,-197.79834)" style="opacity:1;fill:#000;fill-opacity:1;fill-rule:nonzero;stroke:none;stroke-width:5;stroke-linecap:butt;stroke-linejoin:miter;marker:none;marker-start:none;marker-mid:none;marker-end:none;stroke-miterlimit:4;stroke-dasharray:none;stroke-dashoffset:0;stroke-opacity:1;visibility:visible;display:inline;overflow:visible;enable-background:accumulate"/><path id="path2473" d="M 18.24588,6.0697923 A 0.063134536,0.063134536 0 1 1 18.11961,6.0697923 A 0.063134536,0.063134536 0 1 1 18.24588,6.0697923 z" transform="matrix(34.999999,0,0,34.999999,-591.7563,-186.58564)" style="opacity:1;fill:#000;fill-opacity:1;fill-rule:nonzero;stroke:none;stroke-width:5;stroke-linecap:butt;stroke-linejoin:miter;marker:none;marker-start:none;marker-mid:none;marker-end:none;stroke-miterlimit:4;stroke-dasharray:none;stroke-dashoffset:0;stroke-opacity:1;visibility:visible;display:inline;overflow:visible;enable-background:accumulate"/><path id="path2475" d="M 39.121797,14.61913 L 35.10644,24.846924" style="fill:none;fill-rule:evenodd;stroke:#000;stroke-width:1px;stroke-linecap:butt;stroke-linejoin:miter;stroke-opacity:1"/><path id="path2477" d="M 31.728742,7.0745531 L 47.360854,14.196129 L 34.670811,24.752223 L 29.582168,27.656411" style="fill:none;fill-rule:evenodd;stroke:#000;stroke-width:1px;stroke-linecap:round;stroke-linejoin:miter;stroke-opacity:1"/><path id="path2479" d="M 18.24588,6.0697923 A 0.063134536,0.063134536 0 1 1 18.11961,6.0697923 A 0.063134536,0.063134536 0 1 1 18.24588,6.0697923 z" transform="matrix(34.999999,0,0,34.999999,-589.2183,-198.25291)" style="opacity:1;fill:#000;fill-opacity:1;fill-rule:nonzero;stroke:none;stroke-width:5;stroke-linecap:butt;stroke-linejoin:miter;marker:none;marker-start:none;marker-mid:none;marker-end:none;stroke-miterlimit:4;stroke-dasharray:none;stroke-dashoffset:0;stroke-opacity:1;visibility:visible;display:inline;overflow:visible;enable-background:accumulate"/><path id="path2481" d="M 18.24588,6.0697923 A 0.063134536,0.063134536 0 1 1 18.11961,6.0697923 A 0.063134536,0.063134536 0 1 1 18.24588,6.0697923 z" transform="matrix(34.999999,0,0,34.999999,-601.54216,-187.65893)" style="opacity:1;fill:#000;fill-opacity:1;fill-rule:nonzero;stroke:none;stroke-width:5;stroke-linecap:butt;stroke-linejoin:miter;marker:none;marker-start:none;marker-mid:none;marker-end:none;stroke-miterlimit:4;stroke-dasharray:none;stroke-dashoffset:0;stroke-opacity:1;visibility:visible;display:inline;overflow:visible;enable-background:accumulate"/></g><path id="path3154" d="M 0.9489216,0.58026048 L 11.214597,8.1564046 L 17.048228,19.773159 L 22.735412,22.931789" style="fill:none;fill-rule:evenodd;stroke:red;stroke-width:1px;stroke-linecap:round;stroke-linejoin:miter;stroke-opacity:1"/><path id="path3168" d="M 18.24588,6.0697923 A 0.063134536,0.063134536 0 1 1 18.11961,6.0697923 A 0.063134536,0.063134536 0 1 1 18.24588,6.0697923 z" transform="matrix(34.999999,0,0,34.999999,-625.56027,-204.26107)" style="opacity:1;fill:red;fill-opacity:1;fill-rule:nonzero;stroke:none;stroke-width:5;stroke-linecap:butt;stroke-linejoin:miter;marker:none;marker-start:none;marker-mid:none;marker-end:none;stroke-miterlimit:4;stroke-dasharray:none;stroke-dashoffset:0;stroke-opacity:1;visibility:visible;display:inline;overflow:visible;enable-background:accumulate"/><path id="path3170" d="M 18.24588,6.0697923 A 0.063134536,0.063134536 0 1 1 18.11961,6.0697923 A 0.063134536,0.063134536 0 1 1 18.24588,6.0697923 z" transform="matrix(34.999999,0,0,34.999999,-619.72663,-193.04837)" style="opacity:1;fill:red;fill-opacity:1;fill-rule:nonzero;stroke:none;stroke-width:5;stroke-linecap:butt;stroke-linejoin:miter;marker:none;marker-start:none;marker-mid:none;marker-end:none;stroke-miterlimit:4;stroke-dasharray:none;stroke-dashoffset:0;stroke-opacity:1;visibility:visible;display:inline;overflow:visible;enable-background:accumulate"/><path id="path3174" d="M 11.151463,8.1564046 L 7.136106,18.384199" style="fill:none;fill-rule:evenodd;stroke:red;stroke-width:1px;stroke-linecap:butt;stroke-linejoin:miter;stroke-opacity:1"/><path id="path3164" d="M 18.24588,6.0697923 A 0.063134536,0.063134536 0 1 1 18.11961,6.0697923 A 0.063134536,0.063134536 0 1 1 18.24588,6.0697923 z" transform="matrix(34.999999,0,0,34.999999,-617.18863,-204.71564)" style="opacity:1;fill:green;fill-opacity:1;fill-rule:nonzero;stroke:none;stroke-width:5;stroke-linecap:butt;stroke-linejoin:miter;marker:none;marker-start:none;marker-mid:none;marker-end:none;stroke-miterlimit:4;stroke-dasharray:none;stroke-dashoffset:0;stroke-opacity:1;visibility:visible;display:inline;overflow:visible;enable-background:accumulate"/><path id="path3166" d="M 18.24588,6.0697923 A 0.063134536,0.063134536 0 1 1 18.11961,6.0697923 A 0.063134536,0.063134536 0 1 1 18.24588,6.0697923 z" transform="matrix(34.999999,0,0,34.999999,-629.51249,-194.12166)" style="opacity:1;fill:green;fill-opacity:1;fill-rule:nonzero;stroke:none;stroke-width:5;stroke-linecap:butt;stroke-linejoin:miter;marker:none;marker-start:none;marker-mid:none;marker-end:none;stroke-miterlimit:4;stroke-dasharray:none;stroke-dashoffset:0;stroke-opacity:1;visibility:visible;display:inline;overflow:visible;enable-background:accumulate"/><g id="g3244" transform="translate(0.258671,-7.0609486)" style="filter:url(#filter3278)"><path id="path3254" d="M 14.082641,19.80879 L 12.794695,20.863136" style="fill:none;fill-rule:evenodd;stroke:#000;stroke-width:1px;stroke-linecap:round;stroke-linejoin:miter;stroke-opacity:1"/></g><path id="path3172" d="M 3.7584087,0.61182786 L 19.39052,7.7334033 L 6.7004779,18.289498 L 1.6118341,21.193686" style="fill:none;fill-rule:evenodd;stroke:green;stroke-width:1px;stroke-linecap:round;stroke-linejoin:miter;stroke-opacity:1"/></g></svg>