<svg xmlns="http://www.w3.org/2000/svg" xmlns:cc="http://web.resource.org/cc/" xmlns:svg="http://www.w3.org/2000/svg" width="725" height="725" version="1.1"><metadata><RDF><Work><format>image/svg+xml</format><type resource="http://purl.org/dc/dcmitype/StillImage"/></Work></RDF></metadata><path style="fill:#fff;fill-opacity:1;fill-rule:evenodd;stroke:#000;stroke-width:2.5;stroke-linecap:butt;stroke-linejoin:miter;stroke-miterlimit:4;stroke-dashoffset:0;stroke-opacity:1" d="M 712.50000,362.50000 C 712.50000,555.79966 555.79966,712.50000 362.50000,712.50000 C 169.20034,712.50000 12.500000,555.79966 12.500000,362.50000 C 12.500000,169.20034 169.20034,12.500000 362.50000,12.500000 C 555.79966,12.500000 712.50000,169.20034 712.50000,362.50000 L 712.50000,362.50000 z"/><path style="fill:#c00;fill-opacity:1;fill-rule:evenodd" d="M 361.44830,27.362500 C 176.66244,27.362500 25.948300,178.07664 25.948300,362.86250 C 25.948300,547.64836 176.66244,698.36250 361.44830,698.36250 C 546.23416,698.36250 696.94830,547.64836 696.94830,362.86250 C 696.94830,178.07664 546.23416,27.362500 361.44830,27.362500 z"/><rect style="fill:#fff;fill-opacity:1;fill-rule:evenodd;stroke:none;stroke-width:2.5;stroke-linecap:butt;stroke-linejoin:miter;stroke-miterlimit:4;stroke-dashoffset:0;stroke-opacity:1" id="rect1324" width="614.05" height="109.037" x="55.475" y="307.982"/></svg>