<svg xmlns="http://www.w3.org/2000/svg" xmlns:svg="http://www.w3.org/2000/svg" xmlns:xlink="http://www.w3.org/1999/xlink" id="svg2" width="388.742" height="388.875" version="1.0"><defs id="defs4"><linearGradient id="linearGradient3401"><stop id="stop3403" offset="0" style="stop-color:#ff9191;stop-opacity:1"/><stop id="stop3405" offset="1" style="stop-color:#ff9191;stop-opacity:1"/></linearGradient><linearGradient id="linearGradient3316"><stop style="stop-color:#fff;stop-opacity:1" id="stop3318" offset="0"/><stop style="stop-color:#fff;stop-opacity:0" id="stop3320" offset="1"/></linearGradient><linearGradient id="linearGradient3706"><stop style="stop-color:#fff;stop-opacity:.82653064" id="stop3708" offset="0"/><stop style="stop-color:#fff;stop-opacity:0" id="stop3710" offset="1"/></linearGradient><linearGradient id="linearGradient4497"><stop style="stop-color:#ffae2c;stop-opacity:1" id="stop4499" offset="0"/><stop style="stop-color:#ff9e00;stop-opacity:1" id="stop4501" offset="1"/></linearGradient><linearGradient id="linearGradient4254"><stop style="stop-color:#ff9191;stop-opacity:1" id="stop4256" offset="0"/><stop style="stop-color:#b55858;stop-opacity:1" id="stop4258" offset="1"/></linearGradient><linearGradient id="linearGradient3800"><stop style="stop-color:#fff;stop-opacity:1" id="stop3802" offset="0"/><stop style="stop-color:#fff;stop-opacity:0" id="stop3804" offset="1"/></linearGradient><linearGradient id="linearGradient3707"><stop style="stop-color:#fff;stop-opacity:1" id="stop3687" offset="0"/><stop style="stop-color:#ffdd7c;stop-opacity:1" id="stop3711" offset="1"/></linearGradient><linearGradient id="linearGradient3692"><stop style="stop-color:#ff9e00;stop-opacity:1" id="stop3694" offset="0"/><stop id="stop3705" offset=".5" style="stop-color:#fff;stop-opacity:1"/><stop style="stop-color:#ff9e00;stop-opacity:1" id="stop3696" offset="1"/></linearGradient><linearGradient id="linearGradient3806" x1="167.156" x2="167.156" y1="298.179" y2="311.577" gradientUnits="userSpaceOnUse" xlink:href="#linearGradient3800"/><linearGradient id="linearGradient4260" x1="148.703" x2="185.484" y1="318.687" y2="318.687" gradientUnits="userSpaceOnUse" xlink:href="#linearGradient4254"/><linearGradient id="linearGradient4396" x1="148.703" x2="185.484" y1="318.687" y2="318.687" gradientTransform="matrix(1,0,0,-1,0,1052.3622)" gradientUnits="userSpaceOnUse" xlink:href="#linearGradient4254"/><linearGradient id="linearGradient4399" x1="148.703" x2="185.484" y1="318.687" y2="318.687" gradientTransform="translate(0,-1.7382813e-5)" gradientUnits="userSpaceOnUse" xlink:href="#linearGradient4254"/><linearGradient id="linearGradient4465" x1="148.703" x2="185.484" y1="318.687" y2="318.687" gradientUnits="userSpaceOnUse" xlink:href="#linearGradient4254"/><linearGradient id="linearGradient4481" x1="148.703" x2="185.484" y1="318.687" y2="318.687" gradientTransform="matrix(0.6504406,0,0,0.6504406,239.12347,164.45229)" gradientUnits="userSpaceOnUse" xlink:href="#linearGradient4254"/><linearGradient id="linearGradient4495" x1="335.914" x2="359.77" y1="425.205" y2="425.205" gradientUnits="userSpaceOnUse" xlink:href="#linearGradient3707"/><linearGradient id="linearGradient4503" x1="335.917" x2="359.76" y1="414.394" y2="414.394" gradientUnits="userSpaceOnUse" xlink:href="#linearGradient4497"/><linearGradient id="linearGradient4569" x1="148.703" x2="185.484" y1="318.687" y2="318.687" gradientTransform="matrix(0.6504406,0,0,0.6504406,239.12347,164.45229)" gradientUnits="userSpaceOnUse" xlink:href="#linearGradient4254"/><linearGradient id="linearGradient4590" x1="148.703" x2="185.484" y1="318.687" y2="318.687" gradientTransform="matrix(0.6504406,0,0,0.6504406,239.12347,164.45229)" gradientUnits="userSpaceOnUse" xlink:href="#linearGradient4254"/><linearGradient id="linearGradient4592" x1="335.914" x2="359.77" y1="425.205" y2="425.205" gradientUnits="userSpaceOnUse" xlink:href="#linearGradient3707"/><linearGradient id="linearGradient4594" x1="335.917" x2="359.76" y1="414.394" y2="414.394" gradientUnits="userSpaceOnUse" xlink:href="#linearGradient4497"/><linearGradient id="linearGradient2322" x1="335.719" x2="353.75" y1="414.359" y2="414.359" gradientTransform="matrix(3.5733281,-1.5578977e-3,-1.5578977e-3,3.5733281,-872.34737,-1020.0829)" gradientUnits="userSpaceOnUse" xlink:href="#linearGradient3706"/><linearGradient id="linearGradient2332" x1="331.717" x2="365.748" y1="437.795" y2="437.795" gradientTransform="matrix(3.5733281,-1.5578977e-3,-1.5578977e-3,3.5733281,-872.34737,-1020.0829)" gradientUnits="userSpaceOnUse" xlink:href="#linearGradient3707"/><linearGradient id="linearGradient2339" x1="148.703" x2="185.484" y1="318.687" y2="318.687" gradientTransform="matrix(3.3154492,-1.4454678e-3,-1.4454678e-3,3.3154492,-180.47767,-785.1168)" gradientUnits="userSpaceOnUse" xlink:href="#linearGradient4254"/><linearGradient id="linearGradient3322" x1="349.152" x2="373.044" y1="707.902" y2="707.902" gradientUnits="userSpaceOnUse" xlink:href="#linearGradient3316"/><linearGradient id="linearGradient3326" x1="335.719" x2="353.75" y1="414.359" y2="414.359" gradientTransform="matrix(3.5733281,-1.5578977e-3,-1.5578977e-3,3.5733281,-872.34737,-1100.0829)" gradientUnits="userSpaceOnUse" xlink:href="#linearGradient3706"/><linearGradient id="linearGradient3386" x1="335.719" x2="353.75" y1="414.359" y2="414.359" gradientTransform="matrix(3.5733281,1.5578977e-3,-1.5578977e-3,-3.5733281,-872.34737,2152.4451)" gradientUnits="userSpaceOnUse" xlink:href="#linearGradient3706"/><linearGradient id="linearGradient3393" x1="335.719" x2="353.75" y1="414.359" y2="414.359" gradientTransform="matrix(3.5733281,-1.5578977e-3,-1.5578977e-3,3.5733281,-872.34737,-1100.0829)" gradientUnits="userSpaceOnUse" xlink:href="#linearGradient4254"/><linearGradient id="linearGradient3430" x1="148.703" x2="185.484" y1="318.687" y2="318.687" gradientTransform="matrix(3.3154492,-1.4454678e-3,-1.4454678e-3,3.3154492,-180.47767,-785.1168)" gradientUnits="userSpaceOnUse" xlink:href="#linearGradient4254"/><linearGradient id="linearGradient3432" x1="331.717" x2="365.748" y1="437.795" y2="437.795" gradientTransform="matrix(3.5733281,-1.5578977e-3,-1.5578977e-3,3.5733281,-872.34737,-1020.0829)" gradientUnits="userSpaceOnUse" xlink:href="#linearGradient3707"/><linearGradient id="linearGradient3434" x1="335.719" x2="353.75" y1="414.359" y2="414.359" gradientTransform="matrix(3.5733281,-1.5578977e-3,-1.5578977e-3,3.5733281,-872.34737,-1020.0829)" gradientUnits="userSpaceOnUse" xlink:href="#linearGradient3706"/><linearGradient id="linearGradient3436" x1="349.152" x2="373.044" y1="707.902" y2="707.902" gradientUnits="userSpaceOnUse" xlink:href="#linearGradient3316"/><linearGradient id="linearGradient4267" x1="349.152" x2="373.044" y1="707.902" y2="707.902" gradientTransform="translate(15.365248,6.2927944)" gradientUnits="userSpaceOnUse" xlink:href="#linearGradient3316"/><linearGradient id="linearGradient4270" x1="335.719" x2="353.75" y1="414.359" y2="414.359" gradientTransform="matrix(3.5733281,-1.5578977e-3,-1.5578977e-3,3.5733281,-856.98212,-1013.7901)" gradientUnits="userSpaceOnUse" xlink:href="#linearGradient3706"/><linearGradient id="linearGradient4279" x1="331.717" x2="365.748" y1="437.795" y2="437.795" gradientTransform="matrix(3.5733281,-1.5578977e-3,-1.5578977e-3,3.5733281,-856.98212,-1013.7901)" gradientUnits="userSpaceOnUse" xlink:href="#linearGradient3707"/><linearGradient id="linearGradient4286" x1="148.703" x2="185.484" y1="318.687" y2="318.687" gradientTransform="matrix(3.3154492,-1.4454678e-3,-1.4454678e-3,3.3154492,-165.11242,-778.82401)" gradientUnits="userSpaceOnUse" xlink:href="#linearGradient4254"/><linearGradient id="linearGradient4306" x1="148.703" x2="185.484" y1="318.687" y2="318.687" gradientTransform="matrix(3.3154492,-1.4454678e-3,-1.4454678e-3,3.3154492,-165.11242,-778.82401)" gradientUnits="userSpaceOnUse" xlink:href="#linearGradient4254"/><linearGradient id="linearGradient4308" x1="331.717" x2="365.748" y1="437.795" y2="437.795" gradientTransform="matrix(3.5733281,-1.5578977e-3,-1.5578977e-3,3.5733281,-856.98212,-1013.7901)" gradientUnits="userSpaceOnUse" xlink:href="#linearGradient3707"/><linearGradient id="linearGradient4310" x1="335.719" x2="353.75" y1="414.359" y2="414.359" gradientTransform="matrix(3.5733281,-1.5578977e-3,-1.5578977e-3,3.5733281,-856.98212,-1013.7901)" gradientUnits="userSpaceOnUse" xlink:href="#linearGradient3706"/><linearGradient id="linearGradient4314" x1="335.719" x2="353.75" y1="414.359" y2="414.359" gradientTransform="matrix(3.5733281,-1.5578977e-3,-1.5578977e-3,3.5733281,-856.98212,-1013.7901)" gradientUnits="userSpaceOnUse" xlink:href="#linearGradient3706"/><linearGradient id="linearGradient4323" x1="331.717" x2="365.748" y1="437.795" y2="437.795" gradientTransform="matrix(3.5733281,-1.5578977e-3,-1.5578977e-3,3.5733281,-856.98212,-1013.7901)" gradientUnits="userSpaceOnUse" xlink:href="#linearGradient3707"/><linearGradient id="linearGradient4330" x1="148.703" x2="185.484" y1="318.687" y2="318.687" gradientTransform="matrix(3.3154492,-1.4454678e-3,-1.4454678e-3,3.3154492,-165.11242,-778.82401)" gradientUnits="userSpaceOnUse" xlink:href="#linearGradient4254"/><linearGradient id="linearGradient7803" x1="335.719" x2="353.75" y1="414.359" y2="414.359" gradientTransform="matrix(2.5278262,2.525623,-2.5278262,2.525623,565.91117,-1456.1414)" gradientUnits="userSpaceOnUse" xlink:href="#linearGradient3706"/><linearGradient id="linearGradient7812" x1="331.717" x2="365.748" y1="437.795" y2="437.795" gradientTransform="matrix(2.5278262,2.525623,-2.5278262,2.525623,565.91117,-1456.1414)" gradientUnits="userSpaceOnUse" xlink:href="#linearGradient3707"/><linearGradient id="linearGradient7819" x1="148.703" x2="185.484" y1="318.687" y2="318.687" gradientTransform="matrix(2.3453988,2.3433546,-2.3453988,2.3433546,888.99082,-800.76954)" gradientUnits="userSpaceOnUse" xlink:href="#linearGradient4254"/><pattern id="pattern2692" width="96.697" height="77.629" patternTransform="translate(151.5402,41.65591)" patternUnits="userSpaceOnUse"><text id="text2693" x="189.699" y="67.75" transform="translate(-141.3592,-41.03091)" xml:space="preserve" style="font-size:36;font-style:normal;font-variant:normal;font-weight:700;font-stretch:normal;fill:#000;fill-opacity:1;stroke:none;stroke-width:1pt;stroke-linecap:butt;stroke-linejoin:miter;stroke-opacity:1;font-family:Bitstream Vera Sans;text-anchor:middle;writing-mode:lr"><tspan id="tspan2694" x="189.699" y="67.75">0010</tspan><tspan id="tspan2696" x="189.699" y="92.95">0100</tspan><tspan id="tspan2698" x="189.699" y="118.15">0111</tspan></text></pattern><pattern id="pattern2639" width="32.232" height="25.876" patternTransform="translate(183.7668,59.46841)" patternUnits="userSpaceOnUse"><text id="text2640" x="189.699" y="67.75" transform="translate(-173.5858,-58.84341)" xml:space="preserve" style="font-size:12;font-style:normal;font-variant:normal;font-weight:700;font-stretch:normal;fill:#000;fill-opacity:1;stroke:none;stroke-width:1pt;stroke-linecap:butt;stroke-linejoin:miter;stroke-opacity:1;font-family:Bitstream Vera Sans;text-anchor:middle;writing-mode:lr"><tspan id="tspan2641" x="189.699" y="67.75">0010</tspan><tspan id="tspan2643" x="189.699" y="76.15">0100</tspan><tspan id="tspan2645" x="189.699" y="84.55">0111</tspan></text></pattern><pattern id="pattern2623" width="32.232" height="28.276" patternTransform="translate(183.7668,59.46841)" patternUnits="userSpaceOnUse"><text id="text2624" x="189.699" y="67.75" transform="translate(-173.5858,-58.84341)" xml:space="preserve" style="font-size:12;font-style:normal;font-variant:normal;font-weight:700;font-stretch:normal;fill:#000;fill-opacity:1;stroke:none;stroke-width:1pt;stroke-linecap:butt;stroke-linejoin:miter;stroke-opacity:1;font-family:Bitstream Vera Sans;text-anchor:middle;writing-mode:lr"><tspan id="tspan2625" x="189.699" y="67.75">0010</tspan><tspan id="tspan2627" x="189.699" y="77.35">0100</tspan><tspan id="tspan2629" x="189.699" y="86.95">0111</tspan></text></pattern><pattern id="pattern2606" width="32.232" height="37.876" patternTransform="translate(183.7668,59.46841)" patternUnits="userSpaceOnUse"><text id="text2607" x="189.699" y="67.75" transform="translate(-173.5858,-58.84341)" xml:space="preserve" style="font-size:12;font-style:normal;font-weight:700;fill:#000;fill-opacity:1;stroke:none;stroke-width:1pt;stroke-linecap:butt;stroke-linejoin:miter;stroke-opacity:1;font-family:Bitstream Vera Sans;font-stretch:normal;font-variant:normal;text-anchor:middle;writing-mode:lr"><tspan id="tspan2608" x="189.699" y="67.75">0010</tspan><tspan id="tspan2610" x="189.699" y="82.15">0100</tspan><tspan id="tspan2612" x="189.699" y="96.55">0111</tspan></text></pattern><pattern id="pattern2568" width="28.945" height="33.076" patternTransform="translate(190.4901,70.84341)" patternUnits="userSpaceOnUse"><text id="text2569" x="189.699" y="67.75" transform="translate(-190.4901,-70.84341)" xml:space="preserve" style="font-size:12;font-style:normal;font-weight:400;fill:#000;fill-opacity:1;stroke:none;stroke-width:1pt;stroke-linecap:butt;stroke-linejoin:miter;stroke-opacity:1;font-family:Bitstream Vera Sans"><tspan id="tspan2576" x="189.699" y="79.75">0010</tspan><tspan id="tspan2578" x="189.699" y="91.75">0100</tspan><tspan id="tspan2580" x="189.699" y="103.75">0111</tspan></text></pattern><linearGradient id="linearGradient1777" x1="150.495" x2="345.533" y1="42.808" y2="242.18" gradientTransform="scale(1.000071,0.999929)" gradientUnits="userSpaceOnUse" xlink:href="#linearGradient1754"/><linearGradient id="linearGradient1754"><stop id="stop1755" offset="0" style="stop-color:#747474;stop-opacity:1"/><stop id="stop1757" offset=".5" style="stop-color:#bebebe;stop-opacity:1"/><stop id="stop1759" offset=".625" style="stop-color:#d5d5d5;stop-opacity:1"/><stop id="stop1758" offset=".75" style="stop-color:#818181;stop-opacity:1"/><stop id="stop1756" offset="1" style="stop-color:#c3c3c3;stop-opacity:1"/></linearGradient><linearGradient id="linearGradient1778" x1="299.373" x2="411.727" y1="252.27" y2="252.27" gradientTransform="matrix(0.697599,0,0,1.47183,0,-11.82638)" gradientUnits="userSpaceOnUse" xlink:href="#linearGradient1767"/><linearGradient id="linearGradient1767"><stop id="stop1768" offset="0" style="stop-color:#3f3318;stop-opacity:1"/><stop id="stop1769" offset="1" style="stop-color:#815f0e;stop-opacity:1"/></linearGradient><linearGradient id="linearGradient1779" x1="414.132" x2="302.991" y1="240.144" y2="240.802" gradientTransform="scale(0.689104,1.45116)" gradientUnits="userSpaceOnUse" xlink:href="#linearGradient1767"/><radialGradient id="radialGradient2415" cx="212.598" cy="70.866" r="35.433" fx="212.598" fy="70.866" gradientUnits="userSpaceOnUse" xlink:href="#linearGradient2411"/><linearGradient id="linearGradient2411"><stop id="stop2412" offset="0" style="stop-color:#fff;stop-opacity:1"/><stop id="stop2413" offset="1" style="stop-color:#fff;stop-opacity:0"/></linearGradient><linearGradient id="linearGradient2422" x1="156.338" x2="264.569" y1="184.921" y2="184.921" gradientTransform="scale(1.19593,0.836169)" gradientUnits="userSpaceOnUse" xlink:href="#linearGradient2419"/><linearGradient id="linearGradient2419"><stop id="stop2420" offset="0" style="stop-color:#000;stop-opacity:.50515461"/><stop id="stop2421" offset="1" style="stop-color:#000;stop-opacity:0"/></linearGradient><filter id="filter3231"><feGaussianBlur id="feGaussianBlur3233" stdDeviation="3"/></filter><linearGradient id="linearGradient3221" x1="257.041" x2="260.168" y1="184.702" y2="400.812" gradientTransform="matrix(1.2655374,0,0,1.2655374,-63.689462,-69.82371)" gradientUnits="userSpaceOnUse" xlink:href="#linearGradient3215"/><linearGradient id="linearGradient3211" x1="251.936" x2="250.66" y1="200.875" y2="397.367" gradientTransform="translate(7.0661685,5.0661685)" gradientUnits="userSpaceOnUse" xlink:href="#linearGradient3205"/><linearGradient id="linearGradient3201" x1="158.89" x2="156.728" y1="222.32" y2="418.472" gradientTransform="translate(95.137315,-0.4674283)" gradientUnits="userSpaceOnUse" xlink:href="#linearGradient3195"/><linearGradient id="linearGradient3193" x1="152.566" x2="151.985" y1="222.32" y2="418.472" gradientTransform="translate(95.137315,-0.4674283)" gradientUnits="userSpaceOnUse" xlink:href="#linearGradient3187"/><linearGradient id="linearGradient3187"><stop id="stop3189" offset="0" style="stop-color:#b6b6b6;stop-opacity:1"/><stop id="stop3191" offset="1" style="stop-color:#b6b6b6;stop-opacity:0"/></linearGradient><linearGradient id="linearGradient3195"><stop id="stop3197" offset="0" style="stop-color:#f6f6f6;stop-opacity:1"/><stop style="stop-color:#d8d8d8;stop-opacity:1" id="stop3203" offset="1"/><stop id="stop3199" offset="1" style="stop-color:#f2f2f2;stop-opacity:0"/></linearGradient><linearGradient id="linearGradient3205"><stop id="stop3207" offset="0" style="stop-color:#6e6e6e;stop-opacity:1"/><stop id="stop3209" offset="1" style="stop-color:#b6b6b6;stop-opacity:0"/></linearGradient><linearGradient id="linearGradient3215"><stop id="stop3217" offset="0" style="stop-color:#999;stop-opacity:.71666664"/><stop id="stop3219" offset="1" style="stop-color:#999;stop-opacity:0"/></linearGradient></defs><metadata id="metadata7"/><g id="layer2" transform="translate(-209.33745,-272.77978)" style="display:inline"><g id="g3338" transform="translate(220.7627,279.17828)"><g style="display:block" id="layer4"><path id="path2522" d="M 17.61491,18.292406 88.582677,35.433051 159.44882,17.716515 230.31496,35.433051 301.1811,17.716515 318.89764,88.582657 301.1811,159.4488 318.89764,230.31494 301.1811,301.18108 230.31496,318.89762 159.44882,301.18108 88.582677,318.89762 17.716535,301.18108 35.433071,230.31494 17.716535,159.4488 35.433071,88.582657 17.61491,18.292406 z" style="fill:#fff;fill-opacity:1;fill-rule:evenodd;stroke:#000;stroke-width:6.25;stroke-linecap:butt;stroke-linejoin:miter;stroke-miterlimit:4;stroke-opacity:1"/><path id="path1278" d="M 19.6474,302.16346 35.433071,230.31494 17.716535,159.4488 35.433071,88.582657 17.716535,17.716515 88.582677,35.433051 159.44882,17.716515 230.31496,35.433051 301.1811,17.716515 318.89764,88.582657 301.1811,159.4488 318.89764,230.31494 301.1811,301.18108 230.31496,318.89762 159.44882,301.18108 88.582677,318.89762 19.6474,302.16346 z" style="fill:#e3ffc5;fill-opacity:1;fill-rule:evenodd;stroke:#000;stroke-width:.25pt;stroke-linecap:butt;stroke-linejoin:miter;stroke-opacity:1"/><path id="path2682" d="m 194.88189,141.73226 c 0,-2.30348 0,-4.60697 0,-6.91045 0,-9.9373 -1.75844,-10.80608 -11.28033,-10.80608 -14.71657,0 2.63407,17.71653 -15.58242,17.71653 -14.82703,0 12.76403,-34.66176 -54.87722,6.63948 -13.554632,8.27636 -6.07952,-6.63948 2.03249,-6.63948 12.29297,0 12.26577,-17.71653 0.6775,-17.71653 -3.84847,0 8.16384,-4.31536 8.16384,-8.16382 0,-7.7907 28.90582,-16.937416 10.80606,-16.937416 -7.28451,0 -10.80606,13.232566 -10.80606,-4.064979 0,-8.114108 16.55681,-15.950906 0,-17.61491 -2.11219,-0.21228 0,-4.245656 0,-6.368483 0,-3.624609 -14.49844,0 -10.87383,0 9.94773,0 10.87383,-1.698577 10.87383,-11.246427 0,-5.443473 -29.132593,-13.77462 -10.87383,-15.58242 46.12604,-4.566939 12.59477,-26.32076 46.3069,-26.32076 11.33657,0 -17.71654,17.694179 -17.71654,29.030746 0,15.452644 17.71654,-3.402759 17.71654,14.904924 0,19.150103 27.26765,16.937413 45.83263,16.937413 2.43899,0 4.87798,0 7.31698,0 5.19414,0 0,-10.38828 0,-15.58242 0,-14.425959 46.12091,-23.723476 42.14027,-9.857592 -1.83619,6.396028 -17.33541,7.064172 -24.42374,9.180095 -12.72176,3.797548 39.94853,54.199719 9.51881,54.199719 -15.31872,0 -5.45973,-10.23021 -19.6474,-10.23021 -8.00013,0 27.84513,17.32179 27.84513,35.43307 0,10.99808 -24.69128,-6.8367 -35.43307,-8.94294 -4.52732,-0.88771 -6.09094,-8.77359 -10.70446,-8.77359 -22.0876,0 10.70446,30.54942 10.70446,35.43307 0,2.30348 4.60696,0 6.91045,0 5.23125,0 -24.62699,7.68255 -24.62699,-9.72207 0,-2.66482 0,-5.32964 0,-7.99447 z" style="fill:#91d55d;fill-opacity:1;fill-rule:evenodd;stroke:none"/><path id="path1901" d="m 159.44882,141.73226 c 11.88325,0.20054 17.71653,1.92831 17.71653,-10.97543 0,-30.976151 28.1161,-31.950459 28.1161,-6.7411 0,4.35009 7.31698,6.45599 7.31698,10.80608 0,15.15593 3.93187,18.29241 -10.70446,18.29241 -2.33736,0 -4.67472,0 -7.01208,0 -3.6058,0 10.57693,-26.19603 -9.24784,-11.38196 -7.31055,5.46281 -17.21588,6.31009 -26.18523,7.99447 -7.61008,1.42913 -17.71654,3.62482 -17.71654,-7.99447 0,-10.53144 -17.71653,-41.2346 -17.71653,-26.55785 0,6.08893 24.63689,15.6021 25.71098,26.55785 0.3162,3.22524 6.48139,0 9.72209,0 z" style="fill:#72acff;fill-opacity:1;fill-rule:evenodd;stroke:none"/><path id="path2680" d="m 106.36696,194.44151 8.12995,-17.27618 -0.67749,17.71654 10.19633,-10.60281 17.71653,-7.11373 -9.62046,17.71654 9.62046,-6.53783 8.67195,6.53783 9.04459,0 -11.07708,17.71654 -6.63946,8.26546 -8.94296,-8.26546 -8.77357,8.26546 0,9.45107 -17.71654,0 17.71654,-17.71653 -17.71654,0 -6.707219,-17.71654 6.774969,-0.44036 z" style="fill:#999;fill-opacity:1;fill-rule:evenodd;stroke:none"/><path id="path2683" d="m 63.007178,31.842337 -9.857572,21.307249 17.716536,8.502599 0,26.930472 -17.716536,24.559263 0,17.61491 35.433071,19.6474 -17.716535,16.93741 0,9.82369 17.716535,17.71654 17.716533,-17.71654 17.71654,17.71654 17.71653,42.24192 -17.71653,46.34076 8.09607,0 1.355,24.11888" style="fill:none;stroke:red;stroke-width:2.5;stroke-linecap:butt;stroke-linejoin:miter;stroke-miterlimit:4;stroke-opacity:1"/><path id="path1900" d="m 35.22982,302.84095 17.919786,-19.3764 17.716536,17.71653 35.433068,-17.71653 0,-17.71654 53.14961,17.71654 35.43307,0 0,-17.71654 -17.71654,-17.71653 17.71654,-35.43307 17.71654,-17.71654 17.71653,17.71654 0,17.71653 17.71654,0 17.71653,-17.71653 35.43307,0 11.1448,-10.70444" style="fill:none;stroke:red;stroke-width:2.5;stroke-linecap:butt;stroke-linejoin:miter;stroke-miterlimit:4;stroke-opacity:1;stroke-dasharray:none"/><path id="path2679" d="m 27.303113,194.88187 c 11.514541,0.47152 16.036815,24.53974 25.846493,28.69199 10.662661,4.51329 12.89996,6.74108 28.149978,6.74108 12.399615,0 1.242297,-10.80606 16.937414,-10.80606 7.615902,0 25.778752,-12.90602 25.778752,-24.62701 0,-3.22494 26.55617,3.45648 28.42097,7.68959 3.1501,7.15075 17.61491,5.05744 17.61491,16.93742 0,14.99684 -10.60281,7.71666 -10.60281,17.61491 0,12.9999 -6.08732,10.90769 -17.71654,10.90769 -4.84277,0 -4.30831,10.04525 -8.94296,11.44969 -16.17073,4.90022 10.12156,7.43943 15.58242,12.87244 2.82306,2.80866 16.33306,3.80297 19.6474,4.06498 9.30199,0.73533 10.84732,-2.36174 19.6474,-4.06498 19.13598,-3.70374 15.58242,-14.44977 15.58242,-31.16484 0,-9.53012 0,-19.06024 0,-28.59036 0,-2.52724 16.26024,17.71653 16.93741,17.71653 7.22758,0 18.14182,-9.26999 18.96991,-17.71653 0.43551,-4.44225 8.87522,-5.5634 8.87522,-10.02695 0,-0.45166 0,-0.90332 0,-1.35499 0,-16.09317 -6.50915,-41.76767 11.44967,-41.76767 7.71746,0 7.18747,-17.71654 14.90493,-17.71654 5.94424,0 0.63652,-12.40518 -2.03249,-17.71653 -4.26866,-8.49464 -15.51394,-17.71654 3.38748,-17.71654 10.90387,0 10.56994,-17.716533 0.6775,-17.716533 -7.22663,0 -14.45326,0 -21.67989,0 -63.65916,0 -31.52037,-17.716535 -49.45725,-17.716535 -3.60706,0 -10.39956,-11.417929 -10.39956,-17.716536 0,-7.270273 35.43307,12.510967 35.43307,-17.716535 0,0 0,0 0,0" style="fill:none;stroke:#243eb4;stroke-width:1pt;stroke-linecap:butt;stroke-linejoin:miter;stroke-opacity:1"/><g id="g1922"><path id="path1903" d="m 17.716535,159.4488 c -2.179709,-8.96404 18.450489,0 27.675733,0 16.055156,0 -0.744559,17.71653 15.58242,17.71653 9.202663,0 18.405326,0 27.607989,0 1.605012,0 -4.794742,-17.71653 8.299328,-17.71653 7.785065,0 6.325225,-35.43307 16.259915,-35.43307 3.55859,0 3.75283,-21.6988 4.06498,-25.101236 1.65221,-18.009074 24.52538,-25.224593 24.52538,-52.84473 0,-9.451083 0,-12.127201 0,-21.578284" style="fill:none;stroke:#826d35;stroke-width:.375;stroke-linecap:butt;stroke-linejoin:miter;stroke-miterlimit:4;stroke-opacity:1;stroke-dasharray:none"/><path id="path1904" d="m 25.067372,141.73226 c 0,-11.9691 23.938211,0 35.907316,0 24.506532,0 12.142116,-6.2167 27.607989,-10.97543 13.435033,-4.13385 -15.933839,-24.45764 7.621831,-24.45764 3.019274,0 -4.077039,-17.716533 10.094702,-17.716533 14.3968,0 0,-28.793593 0,-43.190389 0,-3.319739 0,-6.639478 0,-9.959217" style="fill:none;stroke:#826d35;stroke-width:.375;stroke-linecap:butt;stroke-linejoin:miter;stroke-miterlimit:4;stroke-opacity:1;stroke-dasharray:none"/><path id="path1905" d="m 177.16535,17.716515 c 0,8.999419 0,17.998838 0,26.998256 0,18.554655 -17.71653,-1.23663 -17.71653,15.582421 0,10.810024 -0.37523,17.11971 -8.36709,21.002392 -6.39627,3.107494 -11.33526,20.047716 -16.93742,24.999606 -11.35798,10.03961 -16.93741,-2.26797 -16.93741,17.71654 0,4.25743 6.80885,6.54865 6.80885,10.80608 0,23.62236 -17.71654,15.64959 -17.71654,33.87483 0,10.95103 -17.716533,6.81419 -17.716533,26.18523 0,6.43778 -11.394591,6.47384 -17.716535,7.68959 -1.151692,0.22148 -3.96652,10.02695 -17.716536,10.02695 -0.353925,0 2.887564,-17.71654 -9.789828,-17.71654 -6.048539,0 -15.496707,-10.15282 -16.937413,-17.71654 -0.0087,-0.0459 -1.890003,0 -2.03249,0" style="fill:none;stroke:#826d35;stroke-width:.375;stroke-linecap:butt;stroke-linejoin:miter;stroke-miterlimit:4;stroke-opacity:1;stroke-dasharray:none"/><path id="path1906" d="m 35.433071,248.03148 c -1.600682,-8.4036 14.078536,17.71653 24.864121,17.71653 13.817978,0 19.203367,2.60352 28.285485,-6.94433 2.976494,-3.12913 8.810138,-7.66194 11.009314,-10.7722 7.102729,-10.0453 6.707219,27.6757 6.707219,27.70961 0,5.6269 11.97278,15.22286 17.71654,16.93741 8.82025,2.63291 20.12878,-0.83017 28.42097,-1.35499 2.3327,-0.14764 4.67473,0 7.0121,0 3.28586,0 0,6.57171 0,9.85757" style="fill:none;stroke:#826d35;stroke-width:.375;stroke-linecap:butt;stroke-linejoin:miter;stroke-miterlimit:4;stroke-opacity:1;stroke-dasharray:none"/><path id="path1907" d="m 167.6804,301.18108 c 6.88789,0 13.77576,0 15.92116,0 9.79425,0 18.26209,-7.55319 28.99687,-10.53507 2.30649,-0.64069 0,-4.78764 0,-7.18146 0,-6.63571 17.71653,-2.44274 17.71653,-9.07845 0,-33.27417 13.19356,-18.52847 35.43307,-35.26371 9.05027,-6.81033 15.20896,7.58632 17.71654,-17.6149 0.21355,-2.1461 15.55983,8.80745 17.71653,8.80745 14.2745,0 -4.26498,-28.33992 -8.5026,-41.9709 -1.34421,-4.3239 7.56593,-10.16499 8.5026,-11.17871" style="fill:none;stroke:#826d35;stroke-width:.375;stroke-linecap:butt;stroke-linejoin:miter;stroke-miterlimit:4;stroke-opacity:1;stroke-dasharray:none"/><path id="path1908" d="m 212.59843,312.3259 c -1.60661,-5.16791 55.63952,-46.57789 63.82016,-46.57789 11.06577,0 22.13155,0 33.19733,0" style="fill:none;stroke:#826d35;stroke-width:.375;stroke-linecap:butt;stroke-linejoin:miter;stroke-miterlimit:4;stroke-opacity:1;stroke-dasharray:none"/></g><g id="g2671"><path id="path2523" d="M 35.907316,88.752046 106.29921,106.29919 177.16535,88.582657 248.0315,106.29919 318.89764,88.582657" style="opacity:.32926827;fill:none;stroke:#000;stroke-width:1.25;stroke-linecap:butt;stroke-linejoin:miter;stroke-miterlimit:4;stroke-opacity:1;stroke-dasharray:10,1.25;stroke-dashoffset:0"/><path id="path2524" d="m 87.397053,36.584813 18.902157,69.714377 -17.716533,70.86614 17.716533,70.86615 -17.716533,70.86614" style="opacity:.32926827;fill:none;stroke:#000;stroke-width:1.25;stroke-linecap:butt;stroke-linejoin:miter;stroke-miterlimit:4;stroke-opacity:1;stroke-dasharray:10,1.25;stroke-dashoffset:0"/><path id="path2525" d="m 158.10695,18.868282 18.90215,69.714377 -17.71653,70.866141 17.71653,70.86615 -17.71653,70.86614" style="opacity:.32926827;fill:none;stroke:#000;stroke-width:1.25;stroke-linecap:butt;stroke-linejoin:miter;stroke-miterlimit:4;stroke-opacity:1;stroke-dasharray:10,1.25;stroke-dashoffset:0"/><path id="path2526" d="m 229.12935,36.584816 18.90215,69.714374 -17.71653,70.86614 17.71653,70.86615 -17.71653,70.86614" style="opacity:.32926827;fill:none;stroke:#000;stroke-width:1.25;stroke-linecap:butt;stroke-linejoin:miter;stroke-miterlimit:4;stroke-opacity:1;stroke-dasharray:10,1.25;stroke-dashoffset:0"/><path id="path2527" d="m 17.716535,159.77444 70.391894,17.54714 70.866141,-17.71653 70.86615,17.71653 70.86614,-17.71653" style="opacity:.32926827;fill:none;stroke:#000;stroke-width:1.25;stroke-linecap:butt;stroke-linejoin:miter;stroke-miterlimit:4;stroke-opacity:1;stroke-dasharray:10,1.25;stroke-dashoffset:0"/><path id="path2528" d="m 35.433071,230.31494 70.391889,17.54714 70.86615,-17.71653 70.86615,17.71653 70.86614,-17.71653" style="opacity:.32926827;fill:none;stroke:#000;stroke-width:1.25;stroke-linecap:butt;stroke-linejoin:miter;stroke-miterlimit:4;stroke-opacity:1;stroke-dasharray:10,1.25;stroke-dashoffset:0"/><path id="path2670" d="M 17.61491,18.292406 88.582677,35.433051 159.44882,17.716515 230.31496,35.433051 301.1811,17.716515 318.89764,88.582657 301.1811,159.4488 318.89764,230.31494 301.1811,301.18108 230.31496,318.89762 159.44882,301.18108 88.582677,318.89762 17.716535,301.18108 35.433071,230.31494 17.716535,159.4488 35.433071,88.582657 17.61491,18.292406 z" style="fill:none;stroke:#000;stroke-width:6.25;stroke-linecap:butt;stroke-linejoin:miter;stroke-miterlimit:4;stroke-opacity:1"/></g></g><g style="display:block" id="layer5"><path id="path2538" d="m 325.80811,118.61269 c 0,55.72342 -45.17276,100.89618 -100.89618,100.89618 -55.72342,0 -100.89618,-45.17276 -100.89618,-100.89618 0,-55.723417 45.17276,-100.896175 100.89618,-100.896175 55.72342,0 100.89618,45.172758 100.89618,100.896175 z" transform="translate(10.18107,0.625001)" style="opacity:.32926827;fill:none;stroke:none"/><path id="path2615" d="m 325.80811,118.61269 c 0,55.72342 -45.17276,100.89618 -100.89618,100.89618 -55.72342,0 -100.89618,-45.17276 -100.89618,-100.89618 0,-55.723417 45.17276,-100.896175 100.89618,-100.896175 55.72342,0 100.89618,45.172758 100.89618,100.896175 z" transform="translate(10.80607,6.608137e-7)" style="opacity:.35975611;fill:url(#pattern2692);fill-opacity:1;stroke:none"/><rect id="rect2614" width="32.232" height="37.876" x="183.767" y="59.468" style="fill:none;stroke:none"/><rect id="rect2631" width="32.232" height="28.276" x="183.767" y="59.468" style="fill:none;stroke:none"/><rect id="rect2684" width="74.525" height="53.15" x="379.398" y="159.449" style="opacity:.35975611;fill:none;stroke:none"/></g><g style="display:block" id="layer1-4"><g style="display:block" id="g2489"><g id="g1774" transform="matrix(0.707107,0.707107,-0.707107,0.707107,161.6029,-155.8874)"><path id="path1736" d="m 248.03125,35.4375 c -58.67716,0 -106.3125,47.604086 -106.3125,106.28125 0,52.62685 38.35814,96.25709 88.59375,104.71875 l 0,37.03125 35.4375,0 0,-37.03125 c 50.23562,-8.46166 88.59377,-52.0919 88.59375,-104.71875 0,-58.677164 -47.63534,-106.28125 -106.3125,-106.28125 z m 0,17.71875 c 48.89764,0 88.59375,39.664861 88.59375,88.5625 10e-6,48.89764 -39.69611,88.59375 -88.59375,88.59375 -48.89764,1e-5 -88.59375,-39.69611 -88.59375,-88.59375 -1e-5,-48.897639 39.69611,-88.5625 88.59375,-88.5625 z" style="fill:url(#linearGradient1777);fill-opacity:1;stroke:#000;stroke-width:6.25;stroke-linecap:butt;stroke-linejoin:miter;stroke-miterlimit:4;stroke-opacity:1"/><rect id="rect1762" width="70.866" height="157.653" x="212.598" y="280.646" rx="20" ry="20" style="fill:url(#linearGradient1778);fill-opacity:1;stroke:url(#linearGradient1779);stroke-width:7.61230564;stroke-linecap:butt;stroke-linejoin:round;stroke-miterlimit:4;stroke-opacity:1"/></g><path id="path2410" d="m 248.03149,70.866119 c 0,19.569145 -15.86393,35.433071 -35.43307,35.433071 -19.56915,0 -35.43307,-15.863926 -35.43307,-35.433071 0,-19.569144 15.86392,-35.433071 35.43307,-35.433071 19.56914,0 35.43307,15.863927 35.43307,35.433071 z" transform="matrix(0.933079,0,0,0.933079,15.92121,6.436221)" style="fill:url(#radialGradient2415);fill-opacity:1;stroke:none"/><path id="path2416" d="m 315.0625,109.375 c -15.36547,42.0745 -55.62842,72.1875 -103,72.1875 -8.64475,0 -17.02349,-1.10746 -25.09375,-3 13.75135,13.16391 32.34998,21.3125 52.875,21.3125 42.25952,0 76.56251,-34.30298 76.5625,-76.5625 0,-4.76122 -0.51069,-9.41608 -1.34375,-13.9375 z" style="fill:url(#linearGradient2422);fill-opacity:1;stroke:none"/></g></g></g><g id="g7826" transform="matrix(-0.55625041,-0.28675456,-0.3082379,0.59792408,876.13544,282.4212)"><path id="path4217" d="m 567.37875,303.43872 c -23.74219,-23.72151 -49.66242,-36.32836 -57.81535,-28.18255 -0.55331,0.55283 -1.03674,1.17717 -1.40135,1.88692 l -51.6622,51.61716 7.79814,7.79135 30.3393,30.31286 9.74768,9.73918 38.13739,38.10415 53.36813,-53.32161 c -0.0295,-0.0959 -0.0306,-0.20765 -0.0608,-0.30424 l -0.0609,-0.0609 c 0.0182,-0.0196 0.0427,-0.041 0.0608,-0.0607 7.68509,-8.40037 -4.93401,-34.02535 -28.45077,-57.52159 z" style="color:#000;fill:url(#linearGradient7819);fill-opacity:1;fill-rule:nonzero;stroke:none;stroke-width:5.16400003;marker:none;visibility:visible;display:inline;overflow:visible;enable-background:accumulate"/><path id="path4235" d="m 470.45111,314.82116 -48.31151,48.26941 -5.54393,5.5391 7.79814,7.79134 78.22436,78.15619 53.85544,-53.8085 -43.01124,-42.97375 -35.21313,-35.18244 -7.79813,-7.79135 z" style="color:#000;fill:#e3dedb;fill-opacity:1;fill-rule:nonzero;stroke:none;stroke-width:5.16400003;marker:none;visibility:visible;display:inline;overflow:visible;enable-background:accumulate"/><path id="path4143" d="m 538.98884,418.23823 -86.0225,-85.94753 -3.89896,3.89555 -1.94957,1.94788 86.0225,85.94754 1.94959,-1.94789 3.89894,-3.89555 z" style="color:#000;fill:#000;fill-opacity:1;fill-rule:nonzero;stroke:none;stroke-width:5.16400003;marker:none;visibility:visible;display:inline;overflow:visible;enable-background:accumulate"/><path id="path4147" d="m 548.73649,408.49908 -86.0225,-85.94754 -3.89912,3.89573 -1.94959,1.94788 86.02251,85.94754 1.94958,-1.94789 3.89912,-3.89572 z" style="color:#000;fill:#000;fill-opacity:1;fill-rule:nonzero;stroke:none;stroke-width:5.16400003;marker:none;visibility:visible;display:inline;overflow:visible;enable-background:accumulate"/><path id="path4163" d="m 529.24119,427.97739 -86.0225,-85.94753 -3.899,3.8956 -1.94954,1.94783 86.02251,85.94753 1.94954,-1.94784 3.89899,-3.89559 z" style="color:#000;fill:#000;fill-opacity:1;fill-rule:nonzero;stroke:none;stroke-width:5.16400003;marker:none;visibility:visible;display:inline;overflow:visible;enable-background:accumulate"/><path id="path4106" d="M 429.20661,356.02971 244.3069,540.76828 209.33745,661.6548 l 10.96614,-3.16514 110.02581,-31.77385 184.89972,-184.73856 -16.69271,-16.67816 -5.84852,-5.84343 -15.59616,-15.58257 -1.94958,-1.94789 -5.84853,-5.84342 -1.94957,-1.94787 -15.596,-15.58241 -5.84871,-5.8436 -8.89459,-8.88684 -7.79814,-7.79135 z" style="color:#000;fill:url(#linearGradient7812);fill-opacity:1;fill-rule:nonzero;stroke:none;stroke-width:5.16400003;marker:none;visibility:visible;display:inline;overflow:visible;enable-background:accumulate"/><path id="path3990" d="m 256.88237,647.92525 -16.90163,-16.88691 -16.90164,-16.8869 -13.74165,47.50336 47.54492,-13.72955 z" style="color:#000;fill:#000;fill-opacity:1;fill-rule:nonzero;stroke:none;stroke-width:5.16400003;marker:none;visibility:visible;display:inline;overflow:visible;enable-background:accumulate"/><path id="path4089" d="m 595.82967,361.08194 c 0.0302,0.0966 0.0313,0.20835 0.0608,0.30424 l 0.12184,-0.12173 -0.18266,-0.18251 z" style="color:#000;fill:#ff9191;fill-opacity:1;fill-rule:nonzero;stroke:none;stroke-width:5.16400003;marker:none;visibility:visible;display:inline;overflow:visible;enable-background:accumulate"/><path id="path3424" d="m 429.20661,356.02971 -184.89971,184.73857 41.72824,1.2819 1.28303,41.69187 41.72821,1.28189 1.28302,41.69187 184.89972,-184.73856 -21.50563,-21.48689 -21.50561,-21.48687 -21.50563,-21.48689 -21.50564,-21.48689 z" style="color:#000;fill:#ffc700;fill-opacity:1;fill-rule:nonzero;stroke:none;stroke-width:5.16400003;marker:none;visibility:visible;display:inline;overflow:visible;enable-background:accumulate"/><path id="path3426" d="M 429.20661,356.02971 244.3069,540.76828 286.03514,542.05018 450.71225,377.5166 429.20661,356.02971 z" style="color:#000;fill:#ffda00;fill-opacity:1;fill-rule:nonzero;stroke:none;stroke-width:5.16400003;marker:none;visibility:visible;display:inline;overflow:visible;enable-background:accumulate"/><path id="path3428" d="M 329.04638,585.02394 330.3294,626.71581 515.22912,441.97725 493.72349,420.49036 329.04638,585.02394 z" style="color:#000;fill:#ff8a00;fill-opacity:1;fill-rule:nonzero;stroke:none;stroke-width:5.16400003;marker:none;visibility:visible;display:inline;overflow:visible;enable-background:accumulate"/><path id="path3430" d="m 287.31817,583.74205 41.72821,1.28189 164.67711,-164.53358 -21.50561,-21.48687 -184.89971,184.73856 z" style="color:#000;fill:#ffa100;fill-opacity:1;fill-rule:nonzero;stroke:none;stroke-width:5.16400003;marker:none;visibility:visible;display:inline;overflow:visible;enable-background:accumulate"/><path id="path3680" d="m 491.10332,336.97196 c -1.55737,-1.55595 -3.37139,-2.77366 -5.29264,-3.55165 -1.9213,-0.778 -3.961,-1.10496 -6.00358,-1.10496 -2.04264,0 -4.08234,0.32696 -6.00359,1.10496 -1.9213,0.77799 -3.73532,1.9957 -5.29264,3.55166 l -29.22798,29.20251 -173.55107,173.39981 c -0.53909,0.53862 -0.74357,1.23379 -1.18492,1.81529 l 21.48653,0.63141 1.2639,41.67278 24.64631,0.78925 172.91911,-172.7684 29.22798,-29.20251 c 1.55728,-1.55596 2.77612,-3.36843 3.55476,-5.28802 0.77861,-1.91961 1.10593,-3.95756 1.10593,-5.99836 -5e-5,-2.04081 -0.32725,-4.07878 -1.10593,-5.99836 -0.77872,-1.91957 -1.99744,-3.73206 -3.55476,-5.28802 l -22.98741,-22.96739 z" style="color:#000;fill:url(#linearGradient7803);fill-opacity:1;fill-rule:nonzero;stroke:none;stroke-width:5;marker:none;visibility:visible;display:inline;overflow:visible;enable-background:accumulate"/><path id="path4288" d="m 239.98074,631.03834 -11.24479,-11.23005 -19.3985,41.84651 30.64329,-30.61646 z" style="opacity:.8;color:#000;fill:#fff;fill-opacity:1;fill-rule:nonzero;stroke:none;stroke-width:5.16400003;marker:none;visibility:visible;display:inline;overflow:visible;enable-background:accumulate"/></g><g id="layer1-8" transform="translate(61.663943,102.94189)"><rect id="rect2383" width="200" height="200" x="170.516" y="227.228" style="opacity:.82407406;fill:#888;fill-opacity:1;fill-rule:nonzero;stroke:none;filter:url(#filter3231)"/><rect id="rect2387" width="200" height="200" x="167.571" y="222.352" style="fill:url(#linearGradient3201);fill-opacity:1;fill-rule:nonzero;stroke:url(#linearGradient3193);stroke-width:1;stroke-miterlimit:4;stroke-opacity:1;stroke-dasharray:none"/><rect id="rect2389" width="160" height="160" x="188.295" y="241.933" style="fill:#fff;fill-opacity:1;fill-rule:nonzero;stroke:url(#linearGradient3211);stroke-width:1;stroke-miterlimit:4;stroke-opacity:1;stroke-dasharray:none"/><path id="path3213" d="m 204.94627,361.77287 c 4.27312,-4.2731 7.72744,-5.69593 13.47141,-7.13192 4.44096,-1.11023 9.68035,-0.66816 14.26385,-1.58487 5.55122,-1.11024 6.3395,-6.19525 6.3395,-11.09409 0,-11.38611 -5.54706,-14.38177 -7.13193,-34.86718 2.67031,-66.38829 72.69323,-79.85774 87.16794,-6.33949 3.98382,28.42145 -1.40444,43.07218 -14.26385,66.5646 14.95375,4.62077 35.44835,7.06259 36.05257,36.18993 -52.29596,-0.73286 -94.22751,-1.70851 -150.56581,-1.25583 6.11301,-21.68071 -1.38493,-24.24211 14.66632,-40.48115 z" style="fill:url(#linearGradient3221);fill-opacity:1;fill-rule:evenodd;stroke:none"/></g><text style="font-size:130.22874451px;font-style:normal;font-weight:400;fill:#000;fill-opacity:1;stroke:none;font-family:Bitstream Vera Sans" id="text3502" x="308.045" y="466.762" transform="scale(0.98366777,1.0166034)" xml:space="preserve"><tspan id="tspan3504" x="308.045" y="466.762">?</tspan></text><text style="font-size:51.91686249px;font-style:normal;font-weight:400;fill:#000;fill-opacity:1;stroke:none;font-family:Bitstream Vera Sans" id="text3506" x="368.539" y="590.731" transform="scale(0.91083832,1.0978897)" xml:space="preserve"><tspan id="tspan3508" x="368.539" y="590.731">10111...</tspan></text></g></svg>